<svg width="561" height="666" viewBox="0 0 561 666" fill="none" xmlns="http://www.w3.org/2000/svg">
<g filter="url(#filter0_i_2_417)">
<rect y="3.88623" width="560.523" height="661.613" rx="32.4002" fill="#6BB1F8"/>
</g>
<g filter="url(#filter1_d_2_417)">
<path d="M99.8694 133.635C96.0564 133.635 93.0441 132.491 90.8325 130.203C88.6209 127.839 87.4389 124.789 87.2864 121.052C86.9813 114.57 85.3417 109.994 82.3675 107.325C79.4696 104.58 75.5803 103.207 70.6996 103.207H68.4118V121.51C68.4118 125.475 67.3441 128.487 65.2088 130.546C63.0735 132.605 60.2518 133.635 56.7438 133.635C53.007 133.635 50.071 132.605 47.9357 130.546C45.8004 128.487 44.7327 125.475 44.7327 121.51V105.38C44.7327 97.2966 45.9148 91.1576 48.2789 86.9633C50.7192 82.7689 53.8078 79.7566 57.5446 77.9264L56.9726 75.7529H55.1424C51.6343 75.7529 48.8508 74.6471 46.7918 72.4356C44.809 70.1477 43.7413 67.0592 43.5888 63.1698C43.5126 59.3568 44.5421 56.2682 46.6774 53.9041C48.8127 51.54 51.6343 50.358 55.1424 50.358H84.3122C92.4721 50.358 99.0687 52.3408 104.102 56.3064C109.135 60.2719 111.652 66.6016 111.652 75.2953C111.652 79.7947 110.889 83.5697 109.364 86.6201C107.839 89.5943 105.894 91.8821 103.53 93.4836C101.166 95.0851 98.6874 96.0383 96.0945 96.3434V97.8305C100.823 98.9744 104.712 101.491 107.762 105.38C110.889 109.27 112.452 114.493 112.452 121.052C112.452 125.246 111.309 128.411 109.021 130.546C106.809 132.605 103.759 133.635 99.8694 133.635ZM67.8398 85.705C67.8398 87.3827 68.1449 88.4885 68.7549 89.0223C69.365 89.5562 70.5089 89.8231 72.1867 89.8231H82.9395C86.1424 89.8231 88.4684 89.0986 89.9174 87.6496C91.3663 86.2007 92.0908 84.1798 92.0908 81.5869C92.0908 78.9177 91.3663 76.8587 89.9174 75.4097C88.4684 73.9608 86.1424 73.2363 82.9395 73.2363H72.1867C70.5089 73.2363 69.365 73.4651 68.7549 73.9227C68.1449 74.3802 67.8398 75.486 67.8398 77.24V85.705ZM116.637 103.893C116.637 97.8686 117.819 92.5685 120.183 87.9928C122.623 83.4171 126.055 79.8329 130.478 77.24C134.977 74.6471 140.316 73.3507 146.493 73.3507C151.297 73.3507 155.606 74.2277 159.419 75.9817C163.308 77.7357 166.359 80.0998 168.57 83.074C170.782 85.9719 171.888 89.1749 171.888 92.6829C171.888 96.3434 170.82 98.9363 168.685 100.461C166.55 101.987 163.385 102.749 159.19 102.749H135.168C135.168 104.732 135.931 106.372 137.456 107.668C139.057 108.965 141.727 109.613 145.463 109.613C147.37 109.613 149.124 109.422 150.725 109.041C152.403 108.66 154.081 108.316 155.759 108.011C157.513 107.63 159.457 107.439 161.593 107.439C164.643 107.439 167.16 108.545 169.142 110.757C171.125 112.892 172.117 115.866 172.117 119.679C172.117 124.179 169.791 127.687 165.139 130.203C160.563 132.72 154.538 133.978 147.065 133.978C141.803 133.978 136.846 132.949 132.194 130.89C127.618 128.831 123.882 125.589 120.984 121.166C118.086 116.667 116.637 110.909 116.637 103.893ZM153.7 98.9744C154.843 98.9744 155.225 98.4406 154.843 97.3729C154.538 96.3053 153.623 95.1995 152.098 94.0556C150.573 92.9116 148.361 92.3397 145.463 92.3397C142.108 92.3397 139.591 93.0642 137.914 94.5131C136.312 95.9621 135.511 97.4492 135.511 98.9744H153.7ZM203.959 157.2C199.308 157.2 195.342 156.704 192.063 155.713C188.86 154.721 185.771 153.196 182.797 151.137C180.204 149.307 178.374 146.752 177.306 143.473C176.239 140.193 176.772 136.876 178.908 133.521C180.28 131.462 181.806 130.051 183.483 129.288C185.237 128.526 186.915 128.22 188.517 128.373C190.194 128.449 191.643 128.792 192.863 129.403C195.533 130.699 197.592 131.652 199.041 132.262C200.566 132.796 202.282 133.063 204.188 133.063C207.01 133.063 209.374 132.072 211.28 130.089C213.263 128.106 214.255 125.323 214.255 121.738V112.473H212.196C211.662 116.514 210.098 119.717 207.506 122.081C204.989 124.369 201.519 125.513 197.096 125.513C193.74 125.513 190.461 124.674 187.258 122.997C184.055 121.319 181.424 118.65 179.365 114.989C177.306 111.329 176.277 106.486 176.277 100.461C176.277 91.6152 178.221 85.0186 182.111 80.6717C186 76.3249 191.033 74.1514 197.21 74.1514C201.481 74.1514 205.141 75.6004 208.192 78.4983C211.242 81.32 212.768 85.2855 212.768 90.395L213.111 90.2806V83.8747C213.111 81.2056 213.95 78.8796 215.627 76.8968C217.381 74.8378 220.089 73.8083 223.749 73.8083C227.638 73.8083 230.422 74.8378 232.1 76.8968C233.854 78.8796 234.731 81.2056 234.731 83.8747L234.845 119.908C234.921 127.839 233.93 134.588 231.871 140.155C229.888 145.722 226.609 149.955 222.033 152.853C217.534 155.751 211.509 157.2 203.959 157.2ZM195.494 98.5168C195.494 102.635 198.24 104.694 203.731 104.694C207.315 104.694 209.832 104.198 211.28 103.207C212.729 102.215 213.454 100.652 213.454 98.5168C213.454 96.3053 212.691 94.78 211.166 93.9412C209.717 93.1023 207.201 92.6829 203.616 92.6829C201.023 92.6829 199.002 93.1023 197.554 93.9412C196.181 94.78 195.494 96.3053 195.494 98.5168ZM240.188 60.5388C240.188 57.2596 241.18 54.6286 243.163 52.6458C245.222 50.5868 248.043 49.5573 251.628 49.5573C255.441 49.5573 258.262 50.5487 260.093 52.5314C261.999 54.5142 262.952 57.1452 262.952 60.4245C262.952 63.6274 261.999 66.2203 260.093 68.2031C258.262 70.1096 255.441 71.0629 251.628 71.0629C247.891 71.0629 245.031 70.1096 243.048 68.2031C241.142 66.2203 240.188 63.6655 240.188 60.5388ZM251.628 133.635C248.043 133.635 245.374 132.644 243.62 130.661C241.866 128.678 240.989 126.2 240.989 123.225V84.1035C240.989 80.8243 241.866 78.2314 243.62 76.3249C245.374 74.4183 248.043 73.4651 251.628 73.4651C255.212 73.4651 257.881 74.4183 259.635 76.3249C261.465 78.2314 262.38 80.748 262.38 83.8747V123.225C262.38 126.2 261.427 128.678 259.521 130.661C257.69 132.644 255.059 133.635 251.628 133.635ZM296.395 133.864C287.472 133.864 280.342 131.233 275.004 125.971C269.742 120.633 267.111 113.121 267.111 103.436C267.111 97.4873 268.331 92.2634 270.771 87.764C273.212 83.2646 276.605 79.7566 280.952 77.24C285.375 74.6471 290.523 73.3507 296.395 73.3507C302.953 73.3507 308.406 74.6471 312.753 77.24C317.1 79.7566 320.341 83.2646 322.476 87.764C324.688 92.2634 325.794 97.4873 325.794 103.436C325.794 113.121 323.353 120.633 318.472 125.971C313.668 131.233 306.309 133.864 296.395 133.864ZM280.723 101.491C280.723 103.855 281.905 105.533 284.269 106.524C286.633 107.439 290.675 107.897 296.395 107.897C302.114 107.897 306.156 107.439 308.52 106.524C310.884 105.533 312.067 103.855 312.067 101.491C312.067 99.2032 310.884 97.6017 308.52 96.6866C306.156 95.7714 302.114 95.3139 296.395 95.3139C290.675 95.3139 286.633 95.7714 284.269 96.6866C281.905 97.6017 280.723 99.2032 280.723 101.491ZM342.451 133.635C339.095 133.635 336.388 132.644 334.329 130.661C332.346 128.602 331.355 126.085 331.355 123.111V85.2474C331.355 82.0444 332.308 79.3372 334.215 77.1256C336.121 74.914 338.867 73.8083 342.451 73.8083C345.959 73.8083 348.628 74.914 350.458 77.1256C352.289 79.3372 353.204 82.1207 353.204 85.4762V91.1958H355.263C355.263 86.8489 356.025 83.4171 357.551 80.9005C359.152 78.3839 361.173 76.5918 363.613 75.5241C366.054 74.3802 368.494 73.8083 370.934 73.8083C376.806 73.8083 381.115 75.9436 383.861 80.2142C386.606 84.4085 387.979 90.395 387.979 98.1736V123.111C387.979 126.085 386.987 128.602 385.005 130.661C383.022 132.644 380.353 133.635 376.997 133.635C373.565 133.635 370.82 132.644 368.761 130.661C366.778 128.602 365.787 126.085 365.787 123.111V102.864C365.787 100.118 365.253 97.983 364.185 96.4578C363.194 94.9326 361.707 94.1699 359.724 94.1699C357.436 94.1699 355.758 95.0088 354.691 96.6866C353.699 98.3643 353.204 100.5 353.204 103.092V123.111C353.204 126.085 352.25 128.602 350.344 130.661C348.437 132.644 345.806 133.635 342.451 133.635Z" fill="black"/>
</g>
<g filter="url(#filter2_d_2_417)">
<path d="M48.7169 190.782C47.5764 190.782 46.5742 190.661 45.7102 190.419C44.8635 190.177 44.1463 189.823 43.5588 189.356C42.9886 188.872 42.5652 188.285 42.2887 187.594C42.0123 186.902 41.8913 186.099 41.9259 185.183L44.0772 184.716C44.0081 185.615 44.155 186.367 44.5179 186.972C44.8808 187.576 45.4337 188.034 46.1768 188.345C46.9198 188.639 47.7924 188.786 48.7947 188.786C49.7624 188.786 50.5832 188.665 51.2571 188.423C51.931 188.181 52.4322 187.844 52.7605 187.412C53.1061 186.98 53.2789 186.488 53.2789 185.935C53.2789 185.313 53.0802 184.82 52.6827 184.457C52.2853 184.094 51.7496 183.818 51.0757 183.628C50.419 183.42 49.6846 183.23 48.8725 183.058C48.0776 182.885 47.2827 182.686 46.4878 182.461C45.6929 182.237 44.9758 181.952 44.3364 181.606C43.7143 181.243 43.2046 180.777 42.8071 180.206C42.427 179.619 42.2369 178.876 42.2369 177.977C42.2369 176.958 42.4875 176.076 42.9886 175.333C43.507 174.59 44.2327 174.02 45.1659 173.623C46.099 173.208 47.1963 173.001 48.4577 173.001C49.7019 173.001 50.8078 173.199 51.7755 173.597C52.7605 173.994 53.5381 174.582 54.1083 175.359C54.6786 176.12 54.981 177.061 55.0155 178.185L52.7864 178.729C52.7864 178.107 52.6741 177.563 52.4494 177.096C52.2421 176.612 51.9483 176.223 51.5682 175.93C51.188 175.618 50.7301 175.385 50.1944 175.23C49.6587 175.057 49.0712 174.97 48.4318 174.97C47.6542 174.97 46.9716 175.091 46.3841 175.333C45.7966 175.575 45.3387 175.904 45.0104 176.318C44.682 176.733 44.5179 177.226 44.5179 177.796C44.5179 178.47 44.7511 179.005 45.2177 179.403C45.7016 179.783 46.3236 180.085 47.084 180.31C47.8443 180.535 48.6565 180.742 49.5205 180.932C50.2635 181.088 50.9893 181.278 51.6978 181.502C52.4235 181.71 53.0802 181.995 53.6677 182.358C54.2552 182.703 54.7218 183.161 55.0674 183.732C55.413 184.302 55.5858 185.028 55.5858 185.909C55.5858 186.894 55.3266 187.749 54.8082 188.475C54.307 189.201 53.5467 189.771 52.5272 190.186C51.5077 190.583 50.2376 190.782 48.7169 190.782ZM64.7554 190.782C63.7013 190.782 62.7682 190.626 61.9561 190.315C61.1612 189.987 60.4872 189.52 59.9343 188.916C59.3813 188.311 58.9666 187.594 58.6901 186.764C58.4136 185.935 58.2754 185.002 58.2754 183.965C58.2754 182.911 58.4136 181.943 58.6901 181.062C58.9666 180.18 59.3727 179.411 59.9084 178.755C60.444 178.098 61.1007 177.597 61.8783 177.251C62.6559 176.889 63.5458 176.707 64.5481 176.707C65.4294 176.707 66.2329 176.854 66.9586 177.148C67.6844 177.442 68.2979 177.899 68.799 178.522C69.3174 179.126 69.7062 179.895 69.9654 180.828C70.2246 181.744 70.3283 182.824 70.2764 184.068L59.7528 184.146V182.539L68.8508 182.461L68.0473 183.55C68.1337 182.461 68.03 181.563 67.7363 180.854C67.4425 180.146 67.0191 179.61 66.4662 179.247C65.9305 178.884 65.2911 178.703 64.5481 178.703C63.7532 178.703 63.0533 178.91 62.4485 179.325C61.8437 179.74 61.3772 180.336 61.0489 181.114C60.7378 181.891 60.5823 182.833 60.5823 183.939C60.5823 185.529 60.9365 186.747 61.645 187.594C62.3535 188.423 63.4076 188.838 64.8073 188.838C65.343 188.838 65.8095 188.777 66.207 188.656C66.6217 188.518 66.9673 188.337 67.2438 188.112C67.5375 187.87 67.7708 187.594 67.9436 187.283C68.1337 186.972 68.2806 186.635 68.3843 186.272L70.4579 186.764C70.3023 187.386 70.0604 187.948 69.7321 188.449C69.4211 188.933 69.0236 189.348 68.5398 189.693C68.0732 190.039 67.5289 190.307 66.9068 190.497C66.2847 190.687 65.5676 190.782 64.7554 190.782ZM73.6319 190.445V172.301H75.9906V190.445H73.6319ZM85.8156 190.782C84.7615 190.782 83.8283 190.626 83.0162 190.315C82.2213 189.987 81.5474 189.52 80.9944 188.916C80.4414 188.311 80.0267 187.594 79.7502 186.764C79.4738 185.935 79.3355 185.002 79.3355 183.965C79.3355 182.911 79.4738 181.943 79.7502 181.062C80.0267 180.18 80.4328 179.411 80.9685 178.755C81.5042 178.098 82.1608 177.597 82.9384 177.251C83.716 176.889 84.606 176.707 85.6082 176.707C86.4895 176.707 87.293 176.854 88.0188 177.148C88.7445 177.442 89.358 177.899 89.8591 178.522C90.3775 179.126 90.7663 179.895 91.0255 180.828C91.2847 181.744 91.3884 182.824 91.3366 184.068L80.813 184.146V182.539L89.9109 182.461L89.1074 183.55C89.1938 182.461 89.0901 181.563 88.7964 180.854C88.5026 180.146 88.0793 179.61 87.5263 179.247C86.9906 178.884 86.3512 178.703 85.6082 178.703C84.8133 178.703 84.1135 178.91 83.5087 179.325C82.9039 179.74 82.4373 180.336 82.109 181.114C81.7979 181.891 81.6424 182.833 81.6424 183.939C81.6424 185.529 81.9967 186.747 82.7051 187.594C83.4136 188.423 84.4677 188.838 85.8674 188.838C86.4031 188.838 86.8696 188.777 87.2671 188.656C87.6818 188.518 88.0274 188.337 88.3039 188.112C88.5977 187.87 88.8309 187.594 89.0037 187.283C89.1938 186.972 89.3407 186.635 89.4444 186.272L91.518 186.764C91.3625 187.386 91.1206 187.948 90.7922 188.449C90.4812 188.933 90.0837 189.348 89.5999 189.693C89.1333 190.039 88.589 190.307 87.9669 190.497C87.3448 190.687 86.6277 190.782 85.8156 190.782ZM100.497 190.782C99.3219 190.782 98.3196 190.592 97.4902 190.212C96.678 189.831 96.0127 189.322 95.4943 188.682C94.9932 188.043 94.6217 187.308 94.3797 186.479C94.1551 185.65 94.0428 184.786 94.0428 183.887C94.0428 182.902 94.1724 181.978 94.4316 181.114C94.6908 180.25 95.0796 179.489 95.598 178.833C96.1337 178.159 96.7903 177.64 97.5679 177.277C98.3628 176.897 99.2873 176.707 100.341 176.707C101.361 176.707 102.259 176.889 103.037 177.251C103.815 177.597 104.445 178.09 104.929 178.729C105.43 179.368 105.75 180.129 105.888 181.01L103.633 181.632C103.599 181.148 103.452 180.682 103.193 180.232C102.951 179.783 102.588 179.42 102.104 179.144C101.62 178.85 101.024 178.703 100.315 178.703C99.6415 178.703 99.0626 178.833 98.5788 179.092C98.1122 179.351 97.7148 179.714 97.3865 180.18C97.0754 180.647 96.8335 181.191 96.6607 181.813C96.5052 182.435 96.4274 183.109 96.4274 183.835C96.4274 184.837 96.5657 185.71 96.8422 186.453C97.1359 187.196 97.5852 187.775 98.19 188.19C98.7948 188.604 99.5724 188.812 100.523 188.812C101.231 188.812 101.836 188.691 102.337 188.449C102.838 188.19 103.236 187.836 103.53 187.386C103.823 186.92 104.013 186.375 104.1 185.753L106.277 186.246C106.156 186.989 105.931 187.645 105.603 188.216C105.275 188.786 104.86 189.261 104.359 189.641C103.858 190.004 103.279 190.281 102.622 190.471C101.983 190.678 101.275 190.782 100.497 190.782ZM113.141 190.704C111.897 190.704 110.973 190.367 110.368 189.693C109.763 189.019 109.461 187.991 109.461 186.609V179.014H107.439L107.465 177.044H108.735C109.167 177.044 109.478 176.966 109.668 176.811C109.876 176.655 109.996 176.396 110.031 176.033L110.29 174.011H111.742V177.044H115.604V179.04H111.742V186.557C111.742 187.248 111.897 187.749 112.208 188.06C112.537 188.354 113.003 188.501 113.608 188.501C113.936 188.501 114.273 188.458 114.619 188.371C114.982 188.285 115.336 188.112 115.682 187.853V190.212C115.181 190.402 114.714 190.531 114.282 190.6C113.867 190.669 113.487 190.704 113.141 190.704ZM130.12 190.782C129.187 190.782 128.357 190.678 127.631 190.471C126.906 190.281 126.301 190.004 125.817 189.641C125.333 189.261 124.962 188.812 124.702 188.293C124.443 187.775 124.305 187.205 124.288 186.583L126.284 186.064C126.249 186.635 126.387 187.136 126.698 187.568C127.027 187.982 127.485 188.302 128.072 188.527C128.677 188.751 129.403 188.864 130.249 188.864C131.269 188.864 132.055 188.691 132.608 188.345C133.178 188 133.463 187.524 133.463 186.92C133.463 186.436 133.308 186.064 132.997 185.805C132.686 185.529 132.254 185.313 131.701 185.157C131.165 184.984 130.526 184.829 129.783 184.691C129.161 184.552 128.539 184.397 127.917 184.224C127.294 184.051 126.724 183.827 126.206 183.55C125.705 183.256 125.299 182.876 124.988 182.41C124.677 181.943 124.521 181.364 124.521 180.673C124.521 179.861 124.737 179.161 125.169 178.573C125.601 177.986 126.214 177.528 127.009 177.2C127.804 176.871 128.755 176.707 129.861 176.707C130.967 176.707 131.908 176.88 132.686 177.226C133.463 177.554 134.077 178.02 134.526 178.625C134.975 179.23 135.226 179.939 135.278 180.751L133.23 181.269C133.213 180.699 133.057 180.215 132.764 179.818C132.487 179.42 132.09 179.126 131.571 178.936C131.053 178.729 130.448 178.625 129.757 178.625C128.841 178.625 128.115 178.798 127.58 179.144C127.044 179.489 126.776 179.964 126.776 180.569C126.776 181.019 126.932 181.381 127.243 181.658C127.571 181.934 128.012 182.15 128.565 182.306C129.118 182.461 129.731 182.617 130.405 182.772C131.096 182.911 131.753 183.066 132.375 183.239C133.014 183.412 133.584 183.636 134.086 183.913C134.587 184.189 134.984 184.561 135.278 185.028C135.572 185.477 135.719 186.056 135.719 186.764C135.719 187.645 135.485 188.388 135.019 188.993C134.552 189.581 133.895 190.03 133.049 190.341C132.219 190.635 131.243 190.782 130.12 190.782ZM138.913 190.445V182.124V177.044H141.039L140.805 181.295H141.246C141.488 180.241 141.808 179.377 142.205 178.703C142.62 178.029 143.138 177.528 143.76 177.2C144.382 176.871 145.108 176.707 145.938 176.707C147.424 176.707 148.547 177.243 149.307 178.314C150.085 179.368 150.474 180.949 150.474 183.058V190.445H148.089V183.265C148.089 181.744 147.847 180.621 147.363 179.895C146.897 179.17 146.205 178.807 145.29 178.807C144.46 178.807 143.752 179.066 143.164 179.584C142.594 180.103 142.145 180.785 141.816 181.632C141.488 182.479 141.306 183.395 141.272 184.38V190.445H138.913ZM157.438 190.782C156.713 190.782 156.056 190.644 155.468 190.367C154.881 190.073 154.414 189.65 154.069 189.097C153.723 188.527 153.55 187.81 153.55 186.946C153.55 186.306 153.663 185.745 153.887 185.261C154.129 184.777 154.492 184.362 154.976 184.017C155.477 183.671 156.116 183.386 156.894 183.161C157.672 182.937 158.622 182.747 159.745 182.591C160.385 182.505 160.903 182.418 161.301 182.332C161.715 182.245 162.018 182.107 162.208 181.917C162.398 181.71 162.493 181.407 162.493 181.01C162.493 180.353 162.268 179.8 161.819 179.351C161.37 178.902 160.661 178.677 159.693 178.677C159.192 178.677 158.683 178.763 158.164 178.936C157.646 179.109 157.188 179.403 156.79 179.818C156.41 180.215 156.168 180.777 156.065 181.502L153.887 180.777C154.026 180.155 154.25 179.593 154.561 179.092C154.89 178.591 155.304 178.167 155.805 177.822C156.307 177.459 156.885 177.182 157.542 176.992C158.216 176.802 158.959 176.707 159.771 176.707C160.894 176.707 161.828 176.897 162.571 177.277C163.331 177.658 163.893 178.245 164.255 179.04C164.636 179.818 164.826 180.82 164.826 182.047V185.028C164.826 185.563 164.834 186.151 164.852 186.79C164.886 187.412 164.929 188.043 164.981 188.682C165.033 189.304 165.085 189.892 165.137 190.445H162.959C162.908 189.892 162.856 189.339 162.804 188.786C162.769 188.233 162.743 187.68 162.726 187.127H162.389C162.13 187.766 161.784 188.363 161.352 188.916C160.92 189.468 160.376 189.918 159.719 190.263C159.08 190.609 158.32 190.782 157.438 190.782ZM158.138 188.864C158.518 188.864 158.899 188.803 159.279 188.682C159.676 188.561 160.065 188.363 160.445 188.086C160.843 187.81 161.214 187.455 161.56 187.023C161.923 186.591 162.242 186.073 162.519 185.468V182.876L163.193 183.006C162.916 183.282 162.545 183.49 162.078 183.628C161.629 183.766 161.128 183.878 160.575 183.965C160.022 184.051 159.469 184.146 158.916 184.25C158.363 184.336 157.853 184.475 157.387 184.665C156.937 184.837 156.574 185.088 156.298 185.416C156.021 185.745 155.883 186.194 155.883 186.764C155.883 187.455 156.091 187.982 156.505 188.345C156.92 188.691 157.464 188.864 158.138 188.864ZM174.536 190.782C173.361 190.782 172.359 190.592 171.53 190.212C170.718 189.831 170.052 189.322 169.534 188.682C169.033 188.043 168.661 187.308 168.419 186.479C168.195 185.65 168.082 184.786 168.082 183.887C168.082 182.902 168.212 181.978 168.471 181.114C168.73 180.25 169.119 179.489 169.637 178.833C170.173 178.159 170.83 177.64 171.607 177.277C172.402 176.897 173.327 176.707 174.381 176.707C175.4 176.707 176.299 176.889 177.077 177.251C177.854 177.597 178.485 178.09 178.969 178.729C179.47 179.368 179.79 180.129 179.928 181.01L177.673 181.632C177.638 181.148 177.491 180.682 177.232 180.232C176.99 179.783 176.627 179.42 176.143 179.144C175.66 178.85 175.063 178.703 174.355 178.703C173.681 178.703 173.102 178.833 172.618 179.092C172.152 179.351 171.754 179.714 171.426 180.18C171.115 180.647 170.873 181.191 170.7 181.813C170.545 182.435 170.467 183.109 170.467 183.835C170.467 184.837 170.605 185.71 170.882 186.453C171.175 187.196 171.625 187.775 172.23 188.19C172.834 188.604 173.612 188.812 174.562 188.812C175.271 188.812 175.876 188.691 176.377 188.449C176.878 188.19 177.275 187.836 177.569 187.386C177.863 186.92 178.053 186.375 178.139 185.753L180.317 186.246C180.196 186.989 179.971 187.645 179.643 188.216C179.314 188.786 178.9 189.261 178.399 189.641C177.897 190.004 177.318 190.281 176.662 190.471C176.022 190.678 175.314 190.782 174.536 190.782ZM183.008 190.445V172.301H185.367V182.643C186.04 182.28 186.688 181.865 187.311 181.399C187.933 180.932 188.512 180.44 189.047 179.921C189.583 179.403 190.041 178.893 190.421 178.392C190.818 177.891 191.121 177.442 191.328 177.044H194.102C193.773 177.683 193.35 178.331 192.832 178.988C192.33 179.627 191.769 180.232 191.147 180.803C190.525 181.355 189.868 181.831 189.177 182.228C188.503 182.626 187.812 182.911 187.103 183.084V183.395C187.967 183.325 188.728 183.429 189.384 183.706C190.041 183.982 190.62 184.38 191.121 184.898C191.639 185.416 192.114 186.012 192.546 186.686C192.978 187.343 193.393 188.043 193.791 188.786L194.594 190.445H191.924L191.354 189.252C190.888 188.371 190.412 187.576 189.929 186.868C189.445 186.142 188.892 185.572 188.27 185.157C187.648 184.742 186.904 184.535 186.04 184.535H185.367V190.445H183.008ZM202.109 190.782C201.176 190.782 200.346 190.678 199.621 190.471C198.895 190.281 198.29 190.004 197.806 189.641C197.322 189.261 196.951 188.812 196.692 188.293C196.432 187.775 196.294 187.205 196.277 186.583L198.273 186.064C198.238 186.635 198.376 187.136 198.688 187.568C199.016 187.982 199.474 188.302 200.061 188.527C200.666 188.751 201.392 188.864 202.239 188.864C203.258 188.864 204.044 188.691 204.597 188.345C205.168 188 205.453 187.524 205.453 186.92C205.453 186.436 205.297 186.064 204.986 185.805C204.675 185.529 204.243 185.313 203.69 185.157C203.154 184.984 202.515 184.829 201.772 184.691C201.15 184.552 200.528 184.397 199.906 184.224C199.284 184.051 198.713 183.827 198.195 183.55C197.694 183.256 197.288 182.876 196.977 182.41C196.666 181.943 196.51 181.364 196.51 180.673C196.51 179.861 196.726 179.161 197.158 178.573C197.59 177.986 198.204 177.528 198.999 177.2C199.793 176.871 200.744 176.707 201.85 176.707C202.956 176.707 203.897 176.88 204.675 177.226C205.453 177.554 206.066 178.02 206.515 178.625C206.965 179.23 207.215 179.939 207.267 180.751L205.219 181.269C205.202 180.699 205.047 180.215 204.753 179.818C204.476 179.42 204.079 179.126 203.561 178.936C203.042 178.729 202.437 178.625 201.746 178.625C200.83 178.625 200.104 178.798 199.569 179.144C199.033 179.489 198.765 179.964 198.765 180.569C198.765 181.019 198.921 181.381 199.232 181.658C199.56 181.934 200.001 182.15 200.554 182.306C201.107 182.461 201.72 182.617 202.394 182.772C203.085 182.911 203.742 183.066 204.364 183.239C205.003 183.412 205.574 183.636 206.075 183.913C206.576 184.189 206.973 184.561 207.267 185.028C207.561 185.477 207.708 186.056 207.708 186.764C207.708 187.645 207.474 188.388 207.008 188.993C206.541 189.581 205.885 190.03 205.038 190.341C204.209 190.635 203.232 190.782 202.109 190.782ZM224.38 190.782C223.516 190.782 222.773 190.609 222.151 190.263C221.546 189.918 221.053 189.451 220.673 188.864C220.31 188.259 220.034 187.576 219.844 186.816H219.429L219.558 190.445H217.433V183.835V172.301H219.818V176.5C219.818 176.949 219.792 177.424 219.74 177.925C219.705 178.409 219.645 178.91 219.558 179.429C219.489 179.947 219.412 180.448 219.325 180.932H219.792C219.982 180.206 220.258 179.524 220.621 178.884C220.984 178.245 221.468 177.727 222.073 177.329C222.695 176.932 223.464 176.733 224.38 176.733C225.52 176.733 226.488 177.035 227.283 177.64C228.095 178.228 228.717 179.049 229.149 180.103C229.581 181.157 229.797 182.384 229.797 183.783C229.797 185.131 229.581 186.332 229.149 187.386C228.734 188.44 228.121 189.27 227.309 189.875C226.514 190.479 225.537 190.782 224.38 190.782ZM223.809 188.708C224.552 188.708 225.183 188.509 225.702 188.112C226.22 187.715 226.617 187.144 226.894 186.401C227.188 185.658 227.335 184.794 227.335 183.809C227.335 182.842 227.196 181.986 226.92 181.243C226.643 180.483 226.246 179.887 225.727 179.455C225.209 179.005 224.57 178.781 223.809 178.781C223.256 178.781 222.764 178.893 222.332 179.118C221.9 179.325 221.52 179.61 221.191 179.973C220.88 180.336 220.621 180.733 220.414 181.165C220.206 181.597 220.051 182.029 219.947 182.461C219.844 182.893 219.792 183.291 219.792 183.654V183.965C219.792 184.483 219.878 185.019 220.051 185.572C220.241 186.125 220.509 186.643 220.854 187.127C221.2 187.594 221.623 187.974 222.125 188.268C222.626 188.561 223.187 188.708 223.809 188.708ZM236.313 190.782C235.587 190.782 234.93 190.644 234.343 190.367C233.755 190.073 233.289 189.65 232.943 189.097C232.597 188.527 232.425 187.81 232.425 186.946C232.425 186.306 232.537 185.745 232.762 185.261C233.004 184.777 233.366 184.362 233.85 184.017C234.351 183.671 234.991 183.386 235.768 183.161C236.546 182.937 237.496 182.747 238.62 182.591C239.259 182.505 239.777 182.418 240.175 182.332C240.589 182.245 240.892 182.107 241.082 181.917C241.272 181.71 241.367 181.407 241.367 181.01C241.367 180.353 241.142 179.8 240.693 179.351C240.244 178.902 239.535 178.677 238.568 178.677C238.067 178.677 237.557 178.763 237.038 178.936C236.52 179.109 236.062 179.403 235.665 179.818C235.284 180.215 235.043 180.777 234.939 181.502L232.762 180.777C232.9 180.155 233.124 179.593 233.436 179.092C233.764 178.591 234.179 178.167 234.68 177.822C235.181 177.459 235.76 177.182 236.416 176.992C237.09 176.802 237.833 176.707 238.645 176.707C239.769 176.707 240.702 176.897 241.445 177.277C242.205 177.658 242.767 178.245 243.13 179.04C243.51 179.818 243.7 180.82 243.7 182.047V185.028C243.7 185.563 243.709 186.151 243.726 186.79C243.76 187.412 243.804 188.043 243.855 188.682C243.907 189.304 243.959 189.892 244.011 190.445H241.834C241.782 189.892 241.73 189.339 241.678 188.786C241.644 188.233 241.618 187.68 241.6 187.127H241.263C241.004 187.766 240.659 188.363 240.227 188.916C239.795 189.468 239.25 189.918 238.594 190.263C237.954 190.609 237.194 190.782 236.313 190.782ZM237.012 188.864C237.393 188.864 237.773 188.803 238.153 188.682C238.55 188.561 238.939 188.363 239.319 188.086C239.717 187.81 240.088 187.455 240.434 187.023C240.797 186.591 241.117 186.073 241.393 185.468V182.876L242.067 183.006C241.79 183.282 241.419 183.49 240.952 183.628C240.503 183.766 240.002 183.878 239.449 183.965C238.896 184.051 238.343 184.146 237.79 184.25C237.237 184.336 236.727 184.475 236.261 184.665C235.812 184.837 235.449 185.088 235.172 185.416C234.896 185.745 234.757 186.194 234.757 186.764C234.757 187.455 234.965 187.982 235.38 188.345C235.794 188.691 236.339 188.864 237.012 188.864ZM252.608 190.782C251.675 190.782 250.845 190.678 250.119 190.471C249.394 190.281 248.789 190.004 248.305 189.641C247.821 189.261 247.45 188.812 247.19 188.293C246.931 187.775 246.793 187.205 246.776 186.583L248.772 186.064C248.737 186.635 248.875 187.136 249.186 187.568C249.515 187.982 249.972 188.302 250.56 188.527C251.165 188.751 251.891 188.864 252.737 188.864C253.757 188.864 254.543 188.691 255.096 188.345C255.666 188 255.951 187.524 255.951 186.92C255.951 186.436 255.796 186.064 255.485 185.805C255.174 185.529 254.742 185.313 254.189 185.157C253.653 184.984 253.014 184.829 252.271 184.691C251.649 184.552 251.027 184.397 250.404 184.224C249.782 184.051 249.212 183.827 248.694 183.55C248.193 183.256 247.787 182.876 247.476 182.41C247.164 181.943 247.009 181.364 247.009 180.673C247.009 179.861 247.225 179.161 247.657 178.573C248.089 177.986 248.702 177.528 249.497 177.2C250.292 176.871 251.243 176.707 252.349 176.707C253.454 176.707 254.396 176.88 255.174 177.226C255.951 177.554 256.565 178.02 257.014 178.625C257.463 179.23 257.714 179.939 257.766 180.751L255.718 181.269C255.701 180.699 255.545 180.215 255.252 179.818C254.975 179.42 254.578 179.126 254.059 178.936C253.541 178.729 252.936 178.625 252.245 178.625C251.329 178.625 250.603 178.798 250.068 179.144C249.532 179.489 249.264 179.964 249.264 180.569C249.264 181.019 249.42 181.381 249.731 181.658C250.059 181.934 250.5 182.15 251.052 182.306C251.605 182.461 252.219 182.617 252.893 182.772C253.584 182.911 254.241 183.066 254.863 183.239C255.502 183.412 256.072 183.636 256.573 183.913C257.075 184.189 257.472 184.561 257.766 185.028C258.06 185.477 258.206 186.056 258.206 186.764C258.206 187.645 257.973 188.388 257.507 188.993C257.04 189.581 256.383 190.03 255.537 190.341C254.707 190.635 253.731 190.782 252.608 190.782ZM267.181 190.782C266.127 190.782 265.193 190.626 264.381 190.315C263.586 189.987 262.913 189.52 262.36 188.916C261.807 188.311 261.392 187.594 261.115 186.764C260.839 185.935 260.701 185.002 260.701 183.965C260.701 182.911 260.839 181.943 261.115 181.062C261.392 180.18 261.798 179.411 262.334 178.755C262.869 178.098 263.526 177.597 264.304 177.251C265.081 176.889 265.971 176.707 266.973 176.707C267.855 176.707 268.658 176.854 269.384 177.148C270.11 177.442 270.723 177.899 271.224 178.522C271.743 179.126 272.131 179.895 272.391 180.828C272.65 181.744 272.754 182.824 272.702 184.068L262.178 184.146V182.539L271.276 182.461L270.473 183.55C270.559 182.461 270.455 181.563 270.162 180.854C269.868 180.146 269.444 179.61 268.891 179.247C268.356 178.884 267.716 178.703 266.973 178.703C266.178 178.703 265.479 178.91 264.874 179.325C264.269 179.74 263.802 180.336 263.474 181.114C263.163 181.891 263.008 182.833 263.008 183.939C263.008 185.529 263.362 186.747 264.07 187.594C264.779 188.423 265.833 188.838 267.233 188.838C267.768 188.838 268.235 188.777 268.632 188.656C269.047 188.518 269.393 188.337 269.669 188.112C269.963 187.87 270.196 187.594 270.369 187.283C270.559 186.972 270.706 186.635 270.81 186.272L272.883 186.764C272.728 187.386 272.486 187.948 272.157 188.449C271.846 188.933 271.449 189.348 270.965 189.693C270.498 190.039 269.954 190.307 269.332 190.497C268.71 190.687 267.993 190.782 267.181 190.782ZM280.876 190.782C279.735 190.782 278.759 190.479 277.947 189.875C277.135 189.27 276.513 188.44 276.081 187.386C275.666 186.332 275.459 185.123 275.459 183.757C275.459 182.392 275.666 181.183 276.081 180.129C276.495 179.075 277.1 178.245 277.895 177.64C278.69 177.035 279.666 176.733 280.824 176.733C281.774 176.733 282.552 176.932 283.157 177.329C283.762 177.727 284.245 178.245 284.608 178.884C284.989 179.507 285.265 180.189 285.438 180.932H285.904C285.818 180.431 285.74 179.913 285.671 179.377C285.602 178.824 285.541 178.288 285.49 177.77C285.438 177.234 285.412 176.759 285.412 176.344V172.301H287.797V183.835V190.445H285.671L285.801 186.816H285.386C285.179 187.594 284.885 188.285 284.505 188.89C284.125 189.477 283.641 189.944 283.053 190.289C282.466 190.618 281.74 190.782 280.876 190.782ZM281.42 188.708C282.042 188.708 282.604 188.561 283.105 188.268C283.606 187.974 284.029 187.594 284.375 187.127C284.721 186.643 284.98 186.125 285.153 185.572C285.343 185.019 285.438 184.483 285.438 183.965V183.654C285.438 183.291 285.386 182.902 285.282 182.487C285.179 182.055 285.023 181.623 284.816 181.191C284.626 180.759 284.366 180.362 284.038 179.999C283.727 179.619 283.356 179.325 282.924 179.118C282.492 178.893 282.008 178.781 281.472 178.781C280.694 178.781 280.038 179.005 279.502 179.455C278.984 179.887 278.586 180.483 278.31 181.243C278.051 182.003 277.921 182.859 277.921 183.809C277.921 184.794 278.059 185.658 278.336 186.401C278.612 187.127 279.01 187.697 279.528 188.112C280.064 188.509 280.694 188.708 281.42 188.708ZM304.213 190.782C302.934 190.782 301.803 190.505 300.818 189.952C299.85 189.382 299.09 188.57 298.537 187.516C298.001 186.462 297.733 185.183 297.733 183.68C297.733 182.124 298.018 180.837 298.588 179.818C299.176 178.781 299.954 178.003 300.921 177.485C301.889 176.966 302.969 176.707 304.161 176.707C305.405 176.707 306.511 176.984 307.479 177.537C308.464 178.072 309.242 178.867 309.812 179.921C310.382 180.958 310.667 182.245 310.667 183.783C310.667 185.321 310.382 186.609 309.812 187.645C309.259 188.682 308.49 189.468 307.505 190.004C306.537 190.523 305.44 190.782 304.213 190.782ZM304.317 188.838C305.146 188.838 305.855 188.639 306.442 188.242C307.047 187.827 307.505 187.248 307.816 186.505C308.144 185.762 308.308 184.881 308.308 183.861C308.308 182.807 308.136 181.9 307.79 181.139C307.462 180.362 306.987 179.766 306.364 179.351C305.742 178.919 304.991 178.703 304.109 178.703C303.315 178.703 302.615 178.893 302.01 179.273C301.405 179.653 300.939 180.215 300.61 180.958C300.282 181.684 300.118 182.574 300.118 183.628C300.118 185.252 300.489 186.531 301.232 187.464C301.993 188.38 303.021 188.838 304.317 188.838ZM314.026 190.445V182.124V177.044H316.152L315.918 181.295H316.359C316.601 180.241 316.921 179.377 317.318 178.703C317.733 178.029 318.251 177.528 318.873 177.2C319.495 176.871 320.221 176.707 321.05 176.707C322.537 176.707 323.66 177.243 324.42 178.314C325.198 179.368 325.587 180.949 325.587 183.058V190.445H323.202V183.265C323.202 181.744 322.96 180.621 322.476 179.895C322.01 179.17 321.318 178.807 320.402 178.807C319.573 178.807 318.865 179.066 318.277 179.584C317.707 180.103 317.257 180.785 316.929 181.632C316.601 182.479 316.419 183.395 316.385 184.38V190.445H314.026ZM336.023 190.445V183.187V177.044H338.148L337.941 181.71H338.382C338.537 180.69 338.779 179.809 339.107 179.066C339.436 178.323 339.868 177.744 340.403 177.329C340.956 176.915 341.639 176.707 342.451 176.707C342.624 176.707 342.823 176.724 343.047 176.759C343.272 176.776 343.531 176.837 343.825 176.94L343.695 179.403C343.436 179.299 343.177 179.23 342.918 179.195C342.658 179.144 342.408 179.118 342.166 179.118C341.492 179.118 340.904 179.334 340.403 179.766C339.919 180.198 339.513 180.785 339.185 181.528C338.857 182.254 338.589 183.075 338.382 183.991V190.445H336.023ZM351.902 190.782C350.848 190.782 349.915 190.626 349.103 190.315C348.308 189.987 347.634 189.52 347.081 188.916C346.528 188.311 346.113 187.594 345.837 186.764C345.56 185.935 345.422 185.002 345.422 183.965C345.422 182.911 345.56 181.943 345.837 181.062C346.113 180.18 346.519 179.411 347.055 178.755C347.591 178.098 348.247 177.597 349.025 177.251C349.803 176.889 350.693 176.707 351.695 176.707C352.576 176.707 353.38 176.854 354.105 177.148C354.831 177.442 355.445 177.899 355.946 178.522C356.464 179.126 356.853 179.895 357.112 180.828C357.371 181.744 357.475 182.824 357.423 184.068L346.9 184.146V182.539L355.998 182.461L355.194 183.55C355.28 182.461 355.177 181.563 354.883 180.854C354.589 180.146 354.166 179.61 353.613 179.247C353.077 178.884 352.438 178.703 351.695 178.703C350.9 178.703 350.2 178.91 349.595 179.325C348.99 179.74 348.524 180.336 348.196 181.114C347.885 181.891 347.729 182.833 347.729 183.939C347.729 185.529 348.083 186.747 348.792 187.594C349.5 188.423 350.554 188.838 351.954 188.838C352.49 188.838 352.956 188.777 353.354 188.656C353.768 188.518 354.114 188.337 354.39 188.112C354.684 187.87 354.918 187.594 355.09 187.283C355.28 186.972 355.427 186.635 355.531 186.272L357.605 186.764C357.449 187.386 357.207 187.948 356.879 188.449C356.568 188.933 356.17 189.348 355.686 189.693C355.22 190.039 354.676 190.307 354.054 190.497C353.431 190.687 352.714 190.782 351.902 190.782ZM365.781 194.981C364.364 194.981 363.198 194.869 362.282 194.644C361.383 194.437 360.718 194.108 360.286 193.659C359.854 193.227 359.638 192.683 359.638 192.026C359.638 191.231 359.949 190.574 360.571 190.056C361.193 189.538 362.135 189.192 363.397 189.019V188.553C362.481 188.553 361.789 188.44 361.323 188.216C360.856 187.991 360.623 187.654 360.623 187.205C360.623 186.738 360.856 186.349 361.323 186.038C361.789 185.71 362.55 185.408 363.604 185.131V184.639C362.55 184.621 361.746 184.31 361.193 183.706C360.64 183.084 360.364 182.28 360.364 181.295C360.364 180.414 360.597 179.653 361.064 179.014C361.548 178.357 362.239 177.856 363.137 177.511C364.053 177.148 365.142 176.966 366.403 176.966H372.728V178.962L368.581 178.314V178.807C369.583 179.014 370.352 179.368 370.887 179.869C371.423 180.353 371.691 181.01 371.691 181.839C371.691 182.582 371.475 183.23 371.043 183.783C370.611 184.336 369.972 184.768 369.125 185.079C368.295 185.373 367.267 185.52 366.04 185.52C365.798 185.52 365.539 185.511 365.263 185.494C365.004 185.46 364.658 185.408 364.226 185.339C363.759 185.632 363.379 185.9 363.085 186.142C362.809 186.384 362.671 186.6 362.671 186.79C362.671 186.98 362.8 187.136 363.06 187.257C363.336 187.36 363.664 187.429 364.045 187.464C364.425 187.499 364.779 187.516 365.107 187.516H368.14C368.486 187.516 368.918 187.55 369.436 187.62C369.972 187.689 370.499 187.836 371.017 188.06C371.553 188.285 372.002 188.63 372.365 189.097C372.728 189.564 372.909 190.212 372.909 191.041C372.909 191.974 372.633 192.734 372.08 193.322C371.527 193.909 370.723 194.333 369.669 194.592C368.615 194.851 367.319 194.981 365.781 194.981ZM365.833 193.037C366.991 193.037 367.924 192.959 368.632 192.804C369.358 192.665 369.885 192.441 370.214 192.13C370.559 191.819 370.732 191.421 370.732 190.937C370.732 190.488 370.611 190.142 370.369 189.901C370.144 189.641 369.859 189.46 369.514 189.356C369.168 189.252 368.822 189.192 368.477 189.175C368.131 189.14 367.838 189.123 367.596 189.123H364.563C363.561 189.348 362.869 189.659 362.489 190.056C362.109 190.453 361.919 190.877 361.919 191.326C361.919 191.81 362.092 192.173 362.437 192.415C362.783 192.657 363.25 192.821 363.837 192.907C364.442 192.994 365.107 193.037 365.833 193.037ZM366.144 183.991C367.233 183.991 368.054 183.766 368.606 183.317C369.159 182.867 369.436 182.263 369.436 181.502C369.436 180.69 369.151 180.025 368.581 179.507C368.028 178.971 367.19 178.703 366.066 178.703C364.978 178.703 364.14 178.954 363.552 179.455C362.982 179.956 362.697 180.604 362.697 181.399C362.697 181.917 362.826 182.375 363.085 182.772C363.362 183.153 363.751 183.455 364.252 183.68C364.77 183.887 365.401 183.991 366.144 183.991ZM375.891 190.445V177.044H378.25V190.445H375.891ZM377.083 174.711C376.53 174.711 376.115 174.599 375.839 174.374C375.563 174.15 375.424 173.813 375.424 173.363C375.424 172.914 375.563 172.577 375.839 172.353C376.115 172.128 376.522 172.016 377.057 172.016C377.61 172.016 378.025 172.128 378.301 172.353C378.578 172.577 378.716 172.914 378.716 173.363C378.716 173.795 378.578 174.132 378.301 174.374C378.025 174.599 377.619 174.711 377.083 174.711ZM388.099 190.782C386.821 190.782 385.689 190.505 384.704 189.952C383.736 189.382 382.976 188.57 382.423 187.516C381.887 186.462 381.619 185.183 381.619 183.68C381.619 182.124 381.904 180.837 382.475 179.818C383.062 178.781 383.84 178.003 384.807 177.485C385.775 176.966 386.855 176.707 388.047 176.707C389.292 176.707 390.397 176.984 391.365 177.537C392.35 178.072 393.128 178.867 393.698 179.921C394.268 180.958 394.553 182.245 394.553 183.783C394.553 185.321 394.268 186.609 393.698 187.645C393.145 188.682 392.376 189.468 391.391 190.004C390.423 190.523 389.326 190.782 388.099 190.782ZM388.203 188.838C389.032 188.838 389.741 188.639 390.328 188.242C390.933 187.827 391.391 187.248 391.702 186.505C392.03 185.762 392.195 184.881 392.195 183.861C392.195 182.807 392.022 181.9 391.676 181.139C391.348 180.362 390.873 179.766 390.251 179.351C389.629 178.919 388.877 178.703 387.996 178.703C387.201 178.703 386.501 178.893 385.896 179.273C385.291 179.653 384.825 180.215 384.496 180.958C384.168 181.684 384.004 182.574 384.004 183.628C384.004 185.252 384.375 186.531 385.118 187.464C385.879 188.38 386.907 188.838 388.203 188.838ZM397.912 190.445V182.124V177.044H400.038L399.804 181.295H400.245C400.487 180.241 400.807 179.377 401.204 178.703C401.619 178.029 402.137 177.528 402.759 177.2C403.381 176.871 404.107 176.707 404.937 176.707C406.423 176.707 407.546 177.243 408.306 178.314C409.084 179.368 409.473 180.949 409.473 183.058V190.445H407.088V183.265C407.088 181.744 406.846 180.621 406.362 179.895C405.896 179.17 405.204 178.807 404.289 178.807C403.459 178.807 402.751 179.066 402.163 179.584C401.593 180.103 401.144 180.785 400.815 181.632C400.487 182.479 400.306 183.395 400.271 184.38V190.445H397.912Z" fill="black"/>
</g>
<mask id="mask0_2_417" style="mask-type:alpha" maskUnits="userSpaceOnUse" x="0" y="3" width="561" height="663">
<rect y="3.88623" width="560.523" height="661.613" rx="32.4002" fill="#6BB1F8"/>
</mask>
<g mask="url(#mask0_2_417)">
<g filter="url(#filter3_d_2_417)">
<g clip-path="url(#clip0_2_417)">
<mask id="mask1_2_417" style="mask-type:luminance" maskUnits="userSpaceOnUse" x="356" y="209" width="237" height="218">
<path d="M356.011 299.137L525.781 209.523L592.762 337.289L422.991 426.903L356.011 299.137Z" fill="white"/>
</mask>
<g mask="url(#mask1_2_417)">
<path d="M356.011 299.137L525.781 209.523L592.762 337.289L422.991 426.903L356.011 299.137Z" fill="#CC0000"/>
<path d="M356.011 299.137L525.781 209.523L530.568 218.653L360.797 308.267L356.011 299.137Z" fill="#CC0000"/>
<path d="M360.797 308.267L530.568 218.653L535.354 227.783L365.584 317.397L360.797 308.267Z" fill="white"/>
<path d="M365.584 317.397L535.354 227.783L540.14 236.913L370.37 326.527L365.584 317.397Z" fill="#CC0000"/>
<path d="M370.37 326.527L540.14 236.913L544.899 245.989L375.128 335.604L370.37 326.527Z" fill="white"/>
<path d="M375.142 335.631L544.913 246.016L549.699 255.146L379.929 344.761L375.142 335.631Z" fill="#CC0000"/>
<path d="M379.929 344.76L549.699 255.146L554.485 264.276L384.715 353.89L379.929 344.76Z" fill="white"/>
<path d="M384.715 353.891L554.485 264.276L559.272 273.406L389.501 363.02L384.715 353.891Z" fill="#CC0000"/>
<path d="M389.501 363.02L559.272 273.406L564.058 282.536L394.287 372.15L389.501 363.02Z" fill="white"/>
<path d="M394.288 372.15L564.058 282.536L568.844 291.666L399.074 381.28L394.288 372.15Z" fill="#CC0000"/>
<path d="M399.074 381.28L568.844 291.666L573.631 300.796L403.86 390.41L399.074 381.28Z" fill="white"/>
<path d="M403.86 390.41L573.631 300.796L578.389 309.872L408.619 399.487L403.86 390.41Z" fill="#CC0000"/>
<path d="M408.632 399.514L578.403 309.899L583.189 319.029L413.419 408.643L408.632 399.514Z" fill="white"/>
<path d="M413.419 408.644L583.189 319.029L587.975 328.159L418.205 417.774L413.419 408.644Z" fill="#CC0000"/>
<path d="M418.205 417.774L587.975 328.159L592.762 337.289L422.991 426.904L418.205 417.774Z" fill="white"/>
<path d="M356.081 299.27L440.966 254.463L479.242 327.476L394.357 372.283L356.081 299.27Z" fill="#000066"/>
<path d="M421.352 289.727L428.623 299.72L429.98 287.45L432.16 299.62L438.675 289.113L435.407 301.033L445.837 294.44L437.742 303.742L449.967 302.319L438.645 307.208L450.285 311.259L437.965 310.693L446.712 319.432L435.853 313.575L439.94 325.249L432.696 315.242L431.339 327.512L429.159 315.342L422.644 325.849L425.885 313.943L415.456 320.536L423.577 311.22L411.352 312.643L422.674 307.754L411.034 303.703L423.354 304.269L414.58 295.544L425.44 301.4L421.352 289.727ZM412.756 294.842C409.211 295.076 405.781 296.195 402.778 298.098C399.774 300.001 397.292 302.627 395.557 305.738C393.823 308.849 392.89 312.345 392.845 315.909C392.8 319.473 393.644 322.992 395.299 326.146C396.952 329.301 399.364 331.993 402.316 333.974C405.269 335.956 408.668 337.166 412.205 337.494C415.742 337.822 419.305 337.257 422.569 335.852C425.834 334.446 428.696 332.244 430.896 329.445C428.923 333.405 425.9 336.742 422.159 339.089C418.417 341.435 414.103 342.701 409.691 342.746C405.282 342.786 400.947 341.605 397.164 339.334C393.38 337.062 390.293 333.788 388.243 329.871C386.192 325.955 385.257 321.548 385.539 317.134C385.822 312.72 387.312 308.469 389.845 304.849C392.378 301.229 395.857 298.379 399.899 296.614C403.941 294.849 408.389 294.236 412.756 294.842Z" fill="#FFCC00"/>
</g>
</g>
<g clip-path="url(#clip1_2_417)">
<mask id="mask2_2_417" style="mask-type:luminance" maskUnits="userSpaceOnUse" x="171" y="307" width="237" height="218">
<path d="M171.12 396.733L340.891 307.119L407.871 434.885L238.101 524.499L171.12 396.733Z" fill="white"/>
</mask>
<g mask="url(#mask2_2_417)">
<path fill-rule="evenodd" clip-rule="evenodd" d="M160.51 402.334L351.501 301.518L418.482 429.284L227.49 530.1L160.51 402.334Z" fill="white"/>
<path d="M310.334 455.522C332.192 443.984 340.591 416.849 329.092 394.915C317.593 372.981 290.552 364.554 268.693 376.092C246.834 387.631 238.436 414.765 249.935 436.699C261.433 458.633 288.475 467.061 310.334 455.522Z" fill="#BC002D"/>
</g>
</g>
<g clip-path="url(#clip2_2_417)">
<mask id="mask3_2_417" style="mask-type:luminance" maskUnits="userSpaceOnUse" x="431" y="353" width="238" height="218">
<path d="M431.503 443.14L601.274 353.526L668.254 481.292L498.484 570.906L431.503 443.14Z" fill="white"/>
</mask>
<g mask="url(#mask3_2_417)">
<path fill-rule="evenodd" clip-rule="evenodd" d="M426.198 445.941L617.19 345.125L684.17 472.891L493.178 573.707L426.198 445.941Z" fill="white"/>
<path fill-rule="evenodd" clip-rule="evenodd" d="M426.198 445.941L617.19 345.125L650.68 409.008L459.688 509.824L426.198 445.941Z" fill="#DF0000"/>
<path fill-rule="evenodd" clip-rule="evenodd" d="M475.842 433.398C471.385 437.133 468.345 442.294 467.232 448.013C466.119 453.732 467.001 459.661 469.729 464.805C472.458 469.949 476.867 473.994 482.216 476.262C487.565 478.53 493.529 478.881 499.106 477.258C496.661 479.618 493.776 481.471 490.615 482.709C487.455 483.948 484.082 484.548 480.69 484.476C477.298 484.404 473.954 483.66 470.849 482.288C467.744 480.916 464.939 478.942 462.596 476.48C457.906 471.521 455.363 464.899 455.524 458.064C455.685 451.229 458.537 444.735 463.455 440.004C467.058 436.539 470.97 434.44 475.868 433.384L475.842 433.398Z" fill="white"/>
<path fill-rule="evenodd" clip-rule="evenodd" d="M482.133 453.797L485.526 457.104L480.794 456.475L478.71 460.769L477.836 456.065L473.143 455.382L477.333 453.103L476.566 448.41L479.986 451.702L484.177 449.49L482.133 453.797ZM494.032 465.188L497.465 468.507L492.733 467.879L490.609 472.16L489.775 467.469L485.068 466.759L489.272 464.506L488.464 459.801L491.884 463.093L496.128 460.853L494.032 465.188ZM509.494 456.89L512.915 460.25L508.169 459.595L506.071 463.863L505.211 459.185L500.518 458.502L504.707 456.222L503.941 451.53L507.36 454.822L511.551 452.61L509.494 456.89ZM506.909 440.719L510.316 444.052L505.584 443.424L503.486 447.691L502.653 443L497.919 442.304L502.149 440.037L501.315 435.346L504.735 438.638L508.979 436.398L506.909 440.719ZM489.841 438.072L493.289 441.418L488.542 440.763L486.432 445.071L485.584 440.353L480.877 439.643L485.055 437.404L484.274 432.685L487.693 435.977L491.938 433.737L489.841 438.072Z" fill="white"/>
</g>
</g>
<g clip-path="url(#clip3_2_417)">
<path d="M61.7223 638.332L231.493 548.717L298.473 676.483L128.703 766.098L61.7223 638.332Z" fill="#012169"/>
<path d="M81.6173 627.83L171.599 641.843L210.802 559.639L231.493 548.717L240.144 565.22L201.459 646.472L289.961 660.246L298.473 676.483L277.252 687.685L188.61 673.645L150.189 754.756L128.703 766.098L120.33 750.127L158.89 669.282L70.653 655.367L61.7223 638.332L81.6173 627.83Z" fill="white"/>
<path d="M213.407 653.759L292.891 665.836L298.473 676.483L198.817 661.46L213.407 653.759ZM167.388 684.846L173.864 693.322L143.027 758.537L128.703 766.098L167.388 684.846ZM231.493 548.717L231.911 549.516L192.094 634.423L186.485 622.431L218.229 555.718L231.493 548.717ZM61.7223 638.332L149.68 651.714L133.764 660.115L67.5831 649.511L61.7223 638.332Z" fill="#C8102E"/>
<path d="M125.651 604.586L192.632 732.352L235.074 709.949L168.094 582.183L125.651 604.586ZM84.0491 680.92L106.376 723.509L276.146 633.895L253.819 591.306L84.0491 680.92Z" fill="white"/>
<path d="M88.654 689.704L102.05 715.258L271.82 625.643L258.424 600.09L88.654 689.704ZM134.14 600.106L201.12 727.872L226.586 714.429L159.606 586.663L134.14 600.106Z" fill="#C8102E"/>
</g>
<g clip-path="url(#clip4_2_417)">
<path fill-rule="evenodd" clip-rule="evenodd" d="M-13.7701 494.329L156 404.714L222.981 532.48L53.2102 622.095L-13.7701 494.329Z" fill="white"/>
<path fill-rule="evenodd" clip-rule="evenodd" d="M-13.7701 494.329L42.8112 464.462L109.791 592.228L53.2102 622.095L-13.7701 494.329Z" fill="#009246"/>
<path fill-rule="evenodd" clip-rule="evenodd" d="M99.419 434.581L156 404.714L222.981 532.48L166.399 562.347L99.419 434.581Z" fill="#CE2B37"/>
</g>
<g clip-path="url(#clip5_2_417)">
<path d="M507.063 584.427L676.833 494.813L743.814 622.579L574.043 712.194L507.063 584.427Z" fill="white"/>
<path d="M507.063 584.427L563.644 554.561L630.625 682.327L574.043 712.194L507.063 584.427Z" fill="#000091"/>
</g>
<g clip-path="url(#clip6_2_417)">
<path d="M246.613 540.736L416.383 451.121L483.364 578.887L313.593 668.502" fill="#BD3D44"/>
<path d="M254.33 555.456L424.1 465.841L254.33 555.456ZM264.614 575.073L434.384 485.459L264.614 575.073ZM274.94 594.77L444.71 505.156L274.94 594.77ZM285.266 614.468L455.036 524.853L285.266 614.468ZM295.592 634.165L465.363 544.55L295.592 634.165ZM305.918 653.862L475.689 564.248L305.918 653.862Z" fill="black"/>
<path d="M254.33 555.456L424.1 465.841M264.614 575.073L434.384 485.459M274.94 594.77L444.71 505.156M285.266 614.468L455.036 524.853M295.592 634.165L465.363 544.55M305.918 653.862L475.689 564.248" stroke="white" stroke-width="11.09"/>
<path d="M246.613 540.736L343.382 489.656L379.454 558.463L282.685 609.543" fill="#192F5D"/>
</g>
<g clip-path="url(#clip7_2_417)">
<path d="M360.155 664.805L451.14 617.381L517.921 746.387L426.909 793.825L360.155 664.805Z" fill="white"/>
<path d="M314.675 688.51L360.155 664.805L426.936 793.811L381.456 817.516L314.675 688.51ZM451.14 617.381L496.62 593.676L563.4 722.682L517.948 746.373L451.14 617.381ZM406.065 720.052L403.115 723.091L427.073 729.033C430.238 732.059 429.121 734.04 429.052 736.534L445.721 724.978L454.614 743.209L458.295 741.188L448.199 723.721L467.177 716.559C464.869 714.793 463.238 714.073 462.322 709.807L471.645 687.542L468.222 687.961C464.919 687.362 464.705 678.669 462.919 674.037C462.919 674.037 455.068 682.327 453.548 680.901L448.649 677.482L444.898 691.655C444.086 692.385 443.49 692.218 442.831 691.538L436.442 669.34L431.932 676.264C431.521 676.785 430.874 676.849 430.233 676.399L417.673 667.247L418.002 683.388C417.756 684.096 417.302 684.401 416.76 684.274L408.86 684.058L422.838 702.061C422.961 703.021 422.376 703.599 421.35 703.587L408.082 698.456C407.915 700.761 408.64 704.001 407.527 705.4C406.401 706.772 400.607 707.471 397.018 708.488C400.202 711.88 407.081 716.758 406.065 720.052Z" fill="#D52B1E"/>
</g>
</g>
</g>
<defs>
<filter id="filter0_i_2_417" x="-3.24002" y="3.88623" width="563.763" height="664.854" filterUnits="userSpaceOnUse" color-interpolation-filters="sRGB">
<feFlood flood-opacity="0" result="BackgroundImageFix"/>
<feBlend mode="normal" in="SourceGraphic" in2="BackgroundImageFix" result="shape"/>
<feColorMatrix in="SourceAlpha" type="matrix" values="0 0 0 0 0 0 0 0 0 0 0 0 0 0 0 0 0 0 127 0" result="hardAlpha"/>
<feOffset dx="-3.24002" dy="3.24002"/>
<feGaussianBlur stdDeviation="6.03454"/>
<feComposite in2="hardAlpha" operator="arithmetic" k2="-1" k3="1"/>
<feColorMatrix type="matrix" values="0 0 0 0 0 0 0 0 0 0 0 0 0 0 0 0 0 0 0.25 0"/>
<feBlend mode="normal" in2="shape" result="effect1_innerShadow_2_417"/>
</filter>
<filter id="filter1_d_2_417" x="36.9944" y="49.5573" width="350.984" height="114.122" filterUnits="userSpaceOnUse" color-interpolation-filters="sRGB">
<feFlood flood-opacity="0" result="BackgroundImageFix"/>
<feColorMatrix in="SourceAlpha" type="matrix" values="0 0 0 0 0 0 0 0 0 0 0 0 0 0 0 0 0 0 127 0" result="hardAlpha"/>
<feOffset dx="-3.24002" dy="3.24002"/>
<feGaussianBlur stdDeviation="1.62001"/>
<feComposite in2="hardAlpha" operator="out"/>
<feColorMatrix type="matrix" values="0 0 0 0 0 0 0 0 0 0 0 0 0 0 0 0 0 0 0.25 0"/>
<feBlend mode="normal" in2="BackgroundImageFix" result="effect1_dropShadow_2_417"/>
<feBlend mode="normal" in="SourceGraphic" in2="effect1_dropShadow_2_417" result="shape"/>
</filter>
<filter id="filter2_d_2_417" x="35.394" y="172.016" width="374.079" height="29.4452" filterUnits="userSpaceOnUse" color-interpolation-filters="sRGB">
<feFlood flood-opacity="0" result="BackgroundImageFix"/>
<feColorMatrix in="SourceAlpha" type="matrix" values="0 0 0 0 0 0 0 0 0 0 0 0 0 0 0 0 0 0 127 0" result="hardAlpha"/>
<feOffset dx="-3.24002" dy="3.24002"/>
<feGaussianBlur stdDeviation="1.62001"/>
<feComposite in2="hardAlpha" operator="out"/>
<feColorMatrix type="matrix" values="0 0 0 0 0 0 0 0 0 0 0 0 0 0 0 0 0 0 0.25 0"/>
<feBlend mode="normal" in2="BackgroundImageFix" result="effect1_dropShadow_2_417"/>
<feBlend mode="normal" in="SourceGraphic" in2="effect1_dropShadow_2_417" result="shape"/>
</filter>
<filter id="filter3_d_2_417" x="-24.3002" y="209.523" width="772.164" height="620.633" filterUnits="userSpaceOnUse" color-interpolation-filters="sRGB">
<feFlood flood-opacity="0" result="BackgroundImageFix"/>
<feColorMatrix in="SourceAlpha" type="matrix" values="0 0 0 0 0 0 0 0 0 0 0 0 0 0 0 0 0 0 127 0" result="hardAlpha"/>
<feOffset dx="-3.24002" dy="8.10005"/>
<feGaussianBlur stdDeviation="3.64502"/>
<feComposite in2="hardAlpha" operator="out"/>
<feColorMatrix type="matrix" values="0 0 0 0 0 0 0 0 0 0 0 0 0 0 0 0 0 0 0.4 0"/>
<feBlend mode="normal" in2="BackgroundImageFix" result="effect1_dropShadow_2_417"/>
<feBlend mode="normal" in="SourceGraphic" in2="effect1_dropShadow_2_417" result="shape"/>
</filter>
<clipPath id="clip0_2_417">
<rect width="191.971" height="144.259" fill="white" transform="matrix(0.884356 -0.466813 0.464307 0.885674 356.011 299.137)"/>
</clipPath>
<clipPath id="clip1_2_417">
<rect width="191.971" height="144.259" fill="white" transform="matrix(0.884356 -0.466813 0.464307 0.885674 171.12 396.733)"/>
</clipPath>
<clipPath id="clip2_2_417">
<rect width="191.971" height="144.259" fill="white" transform="matrix(0.884356 -0.466813 0.464307 0.885674 431.503 443.14)"/>
</clipPath>
<clipPath id="clip3_2_417">
<rect width="191.971" height="144.259" fill="white" transform="matrix(0.884356 -0.466813 0.464307 0.885674 61.7223 638.332)"/>
</clipPath>
<clipPath id="clip4_2_417">
<rect width="191.971" height="144.259" fill="white" transform="matrix(0.884356 -0.466813 0.464307 0.885674 -13.7701 494.329)"/>
</clipPath>
<clipPath id="clip5_2_417">
<rect width="191.971" height="144.259" fill="white" transform="matrix(0.884356 -0.466813 0.464307 0.885674 507.063 584.427)"/>
</clipPath>
<clipPath id="clip6_2_417">
<rect width="191.971" height="144.259" fill="white" transform="matrix(0.884356 -0.466813 0.464307 0.885674 246.613 540.736)"/>
</clipPath>
<clipPath id="clip7_2_417">
<rect width="193.306" height="145.266" fill="white" transform="matrix(0.886772 -0.462208 0.459713 0.888068 319.952 685.76)"/>
</clipPath>
</defs>
</svg>
