<svg width="278" height="34" viewBox="0 0 278 34" fill="none" xmlns="http://www.w3.org/2000/svg">
<g filter="url(#filter0_i_176_2435)">
<path d="M13.7417 33.1213C12.2328 33.1213 10.7105 32.9731 9.17462 32.6767C7.66572 32.3533 6.26461 31.8953 4.97127 31.3025C3.70488 30.6828 2.68098 29.9418 1.89959 29.0796C1.1182 28.1904 0.727503 27.1665 0.727503 26.0079C0.727503 24.5259 1.19903 23.3404 2.14209 22.4512C3.08515 21.562 4.18988 21.1444 5.45627 21.1983C6.45322 21.2252 7.45017 21.4408 8.44711 21.845C9.44406 22.2222 10.4545 22.5994 11.4784 22.9766C12.5292 23.3539 13.5801 23.5425 14.6309 23.5425C15.6817 23.5425 16.4092 23.4077 16.8134 23.1383C17.2176 22.8689 17.4196 22.5051 17.4196 22.047C17.4196 21.5082 17.1367 21.0636 16.5709 20.7133C16.0051 20.363 15.291 20.0936 14.4288 19.905L12.4484 19.4199C10.4006 18.9349 8.56837 18.3961 6.95169 17.8033C5.33502 17.1836 4.05515 16.3752 3.1121 15.3783C2.19598 14.3544 1.73792 12.9937 1.73792 11.2962C1.73792 9.437 2.24987 7.9281 3.27376 6.76948C4.29765 5.58392 5.6853 4.7217 7.43669 4.18281C9.18809 3.64392 11.1416 3.37447 13.2971 3.37447C15.5066 3.37447 17.4466 3.6035 19.1172 4.06156C20.7877 4.51961 22.0811 5.17976 22.9972 6.04198C23.9402 6.90421 24.4118 7.95504 24.4118 9.19449C24.4118 10.5148 24.048 11.5521 23.3205 12.3066C22.6199 13.0341 21.6769 13.3978 20.4913 13.3978C19.7099 13.3978 18.8881 13.2631 18.0259 12.9937C17.1906 12.7242 16.3015 12.4683 15.3584 12.2258C14.4423 11.9563 13.4588 11.8216 12.408 11.8216C11.4649 11.8216 10.7509 11.9698 10.2659 12.2662C9.78087 12.5356 9.53837 12.8994 9.53837 13.3574C9.53837 13.9233 9.8617 14.3409 10.5084 14.6103C11.155 14.8798 12.2194 15.2031 13.7013 15.5804L15.9646 16.1058C17.8238 16.5638 19.454 17.1162 20.8551 17.7629C22.2562 18.4095 23.3474 19.2583 24.1288 20.3091C24.9102 21.36 25.3009 22.7341 25.3009 24.4316C25.3009 26.4794 24.8159 28.15 23.8459 29.4433C22.8759 30.7097 21.5287 31.6393 19.8042 32.2321C18.0798 32.8249 16.0589 33.1213 13.7417 33.1213ZM30.8248 33C29.6392 33 28.6827 32.6497 27.9552 31.9492C27.2546 31.2217 26.9043 30.3325 26.9043 29.2817V15.9037C26.9043 14.772 27.2411 13.8155 27.9148 13.0341C28.5884 12.2527 29.5584 11.862 30.8248 11.862C32.0642 11.862 33.0073 12.2527 33.6539 13.0341C34.3006 13.8155 34.624 14.799 34.624 15.9845V18.0054H35.3515C35.3515 16.4695 35.6209 15.257 36.1598 14.3678C36.7256 13.4787 37.4397 12.8455 38.3019 12.4683C39.1641 12.0641 40.0263 11.862 40.8886 11.862C42.9633 11.862 44.4857 12.6165 45.4557 14.1253C46.4257 15.6073 46.9107 17.7224 46.9107 20.4708V29.2817C46.9107 30.3325 46.5604 31.2217 45.8598 31.9492C45.1593 32.6497 44.2162 33 43.0306 33C41.8181 33 40.8481 32.6497 40.1206 31.9492C39.4201 31.2217 39.0698 30.3325 39.0698 29.2817V22.1279C39.0698 21.1579 38.8812 20.4034 38.504 19.8645C38.1537 19.3256 37.6283 19.0562 36.9277 19.0562C36.1194 19.0562 35.5266 19.3526 35.1494 19.9454C34.7991 20.5381 34.624 21.2926 34.624 22.2087V29.2817C34.624 30.3325 34.2871 31.2217 33.6135 31.9492C32.9399 32.6497 32.0103 33 30.8248 33ZM54.989 33C52.9951 33 51.4323 32.4611 50.3006 31.3833C49.1959 30.3055 48.6435 28.7967 48.6435 26.8566C48.6435 24.9166 49.2902 23.5155 50.5835 22.6533C51.8769 21.7641 53.534 21.3195 55.5548 21.3195C56.7404 21.3195 57.8182 21.4004 58.7882 21.562C59.7582 21.7237 60.6339 21.9527 61.4152 22.2491H61.5365V21.6429C61.5365 21.0231 61.3075 20.5381 60.8494 20.1879C60.3914 19.8106 59.812 19.6355 59.1115 19.6624C58.4379 19.6624 57.8586 19.7029 57.3736 19.7837C56.9155 19.8645 56.3362 19.9993 55.6356 20.1879C54.3423 20.5112 53.2241 20.4843 52.281 20.107C51.338 19.7298 50.6913 18.9888 50.341 17.8841C50.0177 16.7255 50.0851 15.7555 50.5431 14.9741C51.0281 14.1927 51.7556 13.5865 52.7256 13.1553C53.5609 12.7512 54.4905 12.4144 55.5144 12.1449C56.5652 11.8755 57.6969 11.7408 58.9094 11.7408C62.4391 11.7408 65.0258 12.603 66.6694 14.3274C68.34 16.0249 69.1753 18.8811 69.1753 22.8958V29.1604C69.1753 30.2651 68.8385 31.1812 68.1649 31.9087C67.4912 32.6362 66.5617 33 65.3761 33C64.0828 33 63.1128 32.6362 62.4661 31.9087C61.8464 31.1812 61.5365 30.2921 61.5365 29.2412V28.3116H60.7282C60.7282 29.0122 60.5934 29.7262 60.324 30.4537C60.0815 31.1812 59.5561 31.7875 58.7477 32.2725C57.9663 32.7575 56.7134 33 54.989 33ZM55.3931 24.1487C55.3931 24.6068 55.5548 24.9301 55.8781 25.1187C56.2284 25.3073 56.9694 25.4016 58.1011 25.4016C59.125 25.4016 59.839 25.3073 60.2432 25.1187C60.6473 24.9301 60.8494 24.6068 60.8494 24.1487C60.8494 23.7176 60.6473 23.4212 60.2432 23.2595C59.839 23.0709 59.125 22.9766 58.1011 22.9766C56.9694 22.9766 56.2284 23.0709 55.8781 23.2595C55.5548 23.4212 55.3931 23.7176 55.3931 24.1487ZM81.2605 33.1213C79.1589 33.1213 77.2997 32.6901 75.683 31.8279C74.0663 30.9387 72.7999 29.6858 71.8838 28.0691C70.9677 26.4525 70.5097 24.5529 70.5097 22.3704C70.5097 20.1879 70.9677 18.2883 71.8838 16.6716C72.7999 15.0549 74.0663 13.802 75.683 12.9128C77.3266 12.0237 79.2127 11.5791 81.3414 11.5791C83.0119 11.5791 84.4804 11.7542 85.7468 12.1045C87.0401 12.4548 88.0506 12.9802 88.7781 13.6808C89.5325 14.3813 89.9097 15.257 89.9097 16.3079C89.9097 17.5742 89.5864 18.5712 88.9397 19.2987C88.2931 19.9993 87.3635 20.3495 86.151 20.3495C85.3426 20.3495 84.5343 20.2283 83.726 19.9858C82.9446 19.7433 81.9341 19.622 80.6947 19.622C79.6708 19.622 78.8086 19.7837 78.108 20.107C77.4075 20.4304 77.0572 21.0231 77.0572 21.8854C77.0572 22.7745 77.4075 23.4212 78.108 23.8254C78.8086 24.2026 79.6708 24.3912 80.6947 24.3912C81.53 24.3912 82.2305 24.3104 82.7964 24.1487C83.3622 23.987 83.9011 23.8254 84.413 23.6637C84.925 23.502 85.5043 23.4212 86.151 23.4212C87.5251 23.4212 88.5356 23.8254 89.1822 24.6337C89.8558 25.4151 90.1927 26.4255 90.1927 27.665C90.1927 28.7158 89.802 29.6589 89.0206 30.4942C88.2392 31.3025 87.1749 31.9492 85.8276 32.4342C84.4804 32.8922 82.958 33.1213 81.2605 33.1213ZM95.6723 33C94.4867 33 93.5437 32.6497 92.8431 31.9492C92.1426 31.2217 91.7923 30.3325 91.7923 29.2817V5.88032C91.7923 4.74864 92.1291 3.79211 92.8027 3.01072C93.5033 2.22933 94.4867 1.83863 95.7531 1.83863C96.9926 1.83863 97.9222 2.22933 98.5419 3.01072C99.1886 3.79211 99.5119 4.76212 99.5119 5.92073V18.167L99.6331 18.2074C99.7679 17.0758 100.118 16.0384 100.684 15.0953C101.25 14.1253 102.045 13.344 103.069 12.7512C104.092 12.1584 105.345 11.862 106.827 11.862C108.821 11.862 110.424 12.4144 111.637 13.5191C112.849 14.6238 113.456 16.1327 113.456 18.0458C113.456 19.3661 113.186 20.4169 112.647 21.1983C112.135 21.9527 111.435 22.4782 110.546 22.7745C109.657 23.0709 108.673 23.2057 107.595 23.1787V23.8658C109.993 23.8658 111.691 24.3508 112.688 25.3208C113.712 26.2639 114.224 27.4629 114.224 28.9179C114.224 30.2651 113.819 31.3025 113.011 32.03C112.203 32.7575 111.233 33.1078 110.101 33.0808C108.862 33.0539 107.838 32.6901 107.029 31.9896C106.221 31.289 105.547 30.346 105.009 29.1604L103.271 25.4825C102.92 24.755 102.462 24.2296 101.896 23.9062C101.358 23.5829 100.563 23.4616 99.5119 23.5425V29.2817C99.5119 30.3325 99.1616 31.2217 98.461 31.9492C97.7874 32.6497 96.8578 33 95.6723 33ZM100.361 20.7941C100.361 21.1713 100.549 21.4543 100.926 21.6429C101.331 21.8045 102.152 21.8854 103.392 21.8854C104.604 21.8854 105.413 21.8045 105.817 21.6429C106.221 21.4812 106.423 21.1983 106.423 20.7941C106.423 20.4169 106.221 20.134 105.817 19.9454C105.413 19.7568 104.618 19.6624 103.432 19.6624C102.166 19.6624 101.331 19.7568 100.926 19.9454C100.549 20.134 100.361 20.4169 100.361 20.7941Z" fill="url(#paint0_linear_176_2435)"/>
<path d="M136.388 33.1213C133.505 33.1213 131.066 32.4881 129.072 31.2217C127.078 29.9553 125.57 28.2039 124.546 25.9675C123.522 23.7311 123.01 21.1579 123.01 18.2479C123.01 15.3648 123.522 12.8051 124.546 10.5687C125.57 8.30532 127.078 6.54046 129.072 5.27406C131.066 3.98072 133.505 3.33406 136.388 3.33406C139.271 3.33406 141.696 3.98072 143.663 5.27406C145.657 6.54046 147.166 8.30532 148.19 10.5687C149.213 12.8051 149.725 15.3648 149.725 18.2479C149.725 21.1579 149.213 23.7311 148.19 25.9675C147.166 28.2039 145.657 29.9553 143.663 31.2217C141.696 32.4881 139.271 33.1213 136.388 33.1213ZM128.102 17.6012C128.102 18.4365 128.304 19.2313 128.709 19.9858C129.113 20.7133 129.908 21.3061 131.093 21.7641C132.279 22.1952 134.044 22.4108 136.388 22.4108C138.732 22.4108 140.483 22.1952 141.642 21.7641C142.828 21.3061 143.622 20.7133 144.027 19.9858C144.431 19.2313 144.633 18.4365 144.633 17.6012C144.633 16.739 144.431 15.971 144.027 15.2974C143.622 14.5969 142.828 14.0445 141.642 13.6403C140.483 13.2092 138.732 12.9937 136.388 12.9937C134.044 12.9937 132.279 13.2092 131.093 13.6403C129.908 14.0445 129.113 14.5969 128.709 15.2974C128.304 15.971 128.102 16.739 128.102 17.6012ZM152.638 13.5191C152.638 12.8455 152.867 12.3201 153.325 11.9428C153.783 11.5387 154.51 11.3366 155.507 11.3366C156.235 11.3366 156.895 11.3501 157.488 11.377C158.107 11.377 158.511 11.377 158.7 11.377L158.417 9.6795C158.256 9.76033 157.959 9.88158 157.528 10.0432C157.097 10.178 156.477 10.2453 155.669 10.2453C154.349 10.2453 153.203 9.88158 152.233 9.15408C151.263 8.39963 150.778 7.24101 150.778 5.67823C150.778 4.03461 151.236 2.80864 152.153 2.0003C153.096 1.19196 154.308 0.787795 155.79 0.787795C157.299 0.787795 158.511 1.19196 159.428 2.0003C160.344 2.80864 160.802 4.03461 160.802 5.67823C160.802 6.64823 160.748 7.71254 160.64 8.87116C160.559 10.0028 160.344 11.0941 159.993 12.1449C159.67 13.1958 159.145 14.058 158.417 14.7316C157.717 15.3783 156.747 15.7016 155.507 15.7016C154.51 15.7016 153.783 15.513 153.325 15.1358C152.867 14.7316 152.638 14.1927 152.638 13.5191Z" fill="url(#paint1_linear_176_2435)"/>
<path d="M184.045 33.1213C182.239 33.1213 180.744 32.771 179.558 32.0704C178.4 31.3699 177.443 30.3594 176.689 29.0392C175.961 27.7189 175.301 26.1157 174.708 24.2296L170.182 9.71991C169.751 8.37268 169.777 7.2006 170.262 6.20365C170.774 5.17976 171.677 4.4792 172.97 4.10197C174.156 3.7517 175.234 3.83253 176.204 4.34447C177.174 4.82948 177.834 5.66476 178.184 6.85032L182.59 20.8345C183.048 22.3434 183.627 23.3539 184.328 23.8658C185.055 24.3508 185.836 24.4586 186.672 24.1891C187.534 23.9466 188.086 23.4616 188.329 22.7341C188.571 21.9797 188.504 20.848 188.127 19.3391C187.507 16.6447 187.089 14.5295 186.874 12.9937C186.658 11.4578 186.55 10.2453 186.55 9.35616C186.55 7.84727 186.955 6.55393 187.763 5.47615C188.598 4.37142 189.878 3.81906 191.603 3.81906C193.3 3.81906 194.526 4.37142 195.28 5.47615C196.062 6.55393 196.453 7.84727 196.453 9.35616C196.453 10.2453 196.331 11.1614 196.089 12.1045C195.846 13.0476 195.563 14.0176 195.24 15.0145L191.643 25.8866C191.158 27.3416 190.619 28.6215 190.026 29.7262C189.46 30.804 188.706 31.6393 187.763 32.2321C186.847 32.8249 185.607 33.1213 184.045 33.1213ZM195.278 22.4916C195.278 20.363 195.695 18.4904 196.531 16.8737C197.393 15.257 198.605 13.9906 200.168 13.0745C201.758 12.1584 203.644 11.7003 205.826 11.7003C207.524 11.7003 209.046 12.0102 210.394 12.6299C211.768 13.2496 212.845 14.0849 213.627 15.1358C214.408 16.1597 214.799 17.2913 214.799 18.5308C214.799 19.8241 214.422 20.7402 213.667 21.2791C212.913 21.818 211.795 22.0875 210.313 22.0875H201.825C201.825 22.788 202.095 23.3673 202.634 23.8254C203.199 24.2834 204.142 24.5125 205.463 24.5125C206.136 24.5125 206.756 24.4451 207.322 24.3104C207.915 24.1757 208.507 24.0544 209.1 23.9466C209.72 23.8119 210.407 23.7445 211.161 23.7445C212.239 23.7445 213.128 24.1352 213.829 24.9166C214.53 25.6711 214.88 26.7219 214.88 28.0691C214.88 29.6589 214.058 30.8983 212.414 31.7875C210.798 32.6767 208.669 33.1213 206.029 33.1213C204.169 33.1213 202.418 32.7575 200.774 32.03C199.158 31.3025 197.837 30.1574 196.813 28.5946C195.79 27.0048 195.278 24.9705 195.278 22.4916ZM208.373 20.7537C208.777 20.7537 208.912 20.5651 208.777 20.1879C208.669 19.8106 208.346 19.4199 207.807 19.0158C207.268 18.6116 206.487 18.4095 205.463 18.4095C204.277 18.4095 203.388 18.6655 202.795 19.1774C202.229 19.6894 201.946 20.2148 201.946 20.7537H208.373ZM221.07 33C219.803 33 218.82 32.6362 218.119 31.9087C217.419 31.1812 217.069 30.2651 217.069 29.1604V15.9037C217.069 14.7451 217.419 13.7885 218.119 13.0341C218.82 12.2527 219.803 11.862 221.07 11.862C222.336 11.862 223.306 12.2527 223.98 13.0341C224.654 13.7885 224.99 14.7181 224.99 15.8229V16.6716H225.758C225.866 15.2435 226.405 14.0715 227.375 13.1553C228.345 12.2392 229.49 11.7812 230.81 11.7812C232.131 11.7812 233.168 12.1853 233.922 12.9937C234.704 13.802 235.095 14.8798 235.095 16.227C235.095 17.4934 234.731 18.5443 234.003 19.3795C233.276 20.2148 232.346 20.6325 231.215 20.6325C230.271 20.6325 229.477 20.4169 228.83 19.9858C228.21 19.5277 227.752 19.0023 227.456 18.4095C226.594 18.3018 225.96 18.3961 225.556 18.6924C225.179 18.9619 224.99 19.5143 224.99 20.3495V29.1604C224.99 30.2651 224.654 31.1812 223.98 31.9087C223.306 32.6362 222.336 33 221.07 33ZM246.357 33.5254C244.498 33.5254 242.773 33.3503 241.184 33C239.621 32.6228 238.368 32.0435 237.425 31.2621C236.482 30.4537 236.01 29.3894 236.01 28.0691C236.01 26.9105 236.36 25.954 237.061 25.1996C237.762 24.4451 238.691 24.0679 239.85 24.0679C240.577 24.0679 241.305 24.1891 242.032 24.4316C242.787 24.6472 243.582 24.8627 244.417 25.0783C245.252 25.2939 246.155 25.4016 247.125 25.4016C247.987 25.4016 248.566 25.3612 248.863 25.2804C249.159 25.1726 249.307 24.984 249.307 24.7146C249.307 24.3912 249.119 24.1757 248.742 24.0679C248.391 23.9601 247.785 23.8254 246.923 23.6637L244.013 23.0979C242.8 22.8554 241.615 22.5455 240.456 22.1683C239.324 21.7641 238.381 21.1713 237.627 20.39C236.899 19.6086 236.536 18.5443 236.536 17.197C236.536 15.3648 237.344 13.9367 238.961 12.9128C240.604 11.8889 242.975 11.377 246.074 11.377C247.852 11.377 249.442 11.5521 250.843 11.9024C252.271 12.2527 253.403 12.7781 254.238 13.4787C255.073 14.1523 255.491 15.001 255.491 16.0249C255.518 17.1297 255.222 18.0188 254.602 18.6924C253.982 19.3661 253.201 19.7029 252.258 19.7029C251.584 19.7029 250.897 19.622 250.197 19.4604C249.523 19.2718 248.782 19.0831 247.974 18.8945C247.192 18.679 246.29 18.5577 245.266 18.5308C244.538 18.4769 243.945 18.5173 243.487 18.652C243.029 18.7868 242.8 19.0023 242.8 19.2987C242.8 19.622 243.07 19.8511 243.609 19.9858C244.147 20.0936 244.956 20.2418 246.034 20.4304L248.903 20.9558C250.655 21.2522 252.042 21.6294 253.066 22.0875C254.117 22.5186 254.871 23.1248 255.329 23.9062C255.788 24.6876 256.017 25.7654 256.017 27.1396C256.017 28.5676 255.599 29.7667 254.764 30.7367C253.955 31.6797 252.824 32.3803 251.369 32.8383C249.914 33.2964 248.243 33.5254 246.357 33.5254ZM257.442 22.4916C257.442 20.363 257.86 18.4904 258.695 16.8737C259.557 15.257 260.77 13.9906 262.333 13.0745C263.922 12.1584 265.808 11.7003 267.991 11.7003C269.688 11.7003 271.211 12.0102 272.558 12.6299C273.932 13.2496 275.01 14.0849 275.791 15.1358C276.573 16.1597 276.964 17.2913 276.964 18.5308C276.964 19.8241 276.586 20.7402 275.832 21.2791C275.077 21.818 273.959 22.0875 272.477 22.0875H263.99C263.99 22.788 264.259 23.3673 264.798 23.8254C265.364 24.2834 266.307 24.5125 267.627 24.5125C268.301 24.5125 268.921 24.4451 269.486 24.3104C270.079 24.1757 270.672 24.0544 271.265 23.9466C271.884 23.8119 272.572 23.7445 273.326 23.7445C274.404 23.7445 275.293 24.1352 275.994 24.9166C276.694 25.6711 277.044 26.7219 277.044 28.0691C277.044 29.6589 276.223 30.8983 274.579 31.7875C272.962 32.6767 270.834 33.1213 268.193 33.1213C266.334 33.1213 264.582 32.7575 262.939 32.03C261.322 31.3025 260.002 30.1574 258.978 28.5946C257.954 27.0048 257.442 24.9705 257.442 22.4916ZM270.537 20.7537C270.941 20.7537 271.076 20.5651 270.941 20.1879C270.834 19.8106 270.51 19.4199 269.971 19.0158C269.433 18.6116 268.651 18.4095 267.627 18.4095C266.442 18.4095 265.552 18.6655 264.96 19.1774C264.394 19.6894 264.111 20.2148 264.111 20.7537H270.537Z" fill="url(#paint2_linear_176_2435)"/>
</g>
<defs>
<filter id="filter0_i_176_2435" x="0.727539" y="0.787781" width="276.317" height="34.7376" filterUnits="userSpaceOnUse" color-interpolation-filters="sRGB">
<feFlood flood-opacity="0" result="BackgroundImageFix"/>
<feBlend mode="normal" in="SourceGraphic" in2="BackgroundImageFix" result="shape"/>
<feColorMatrix in="SourceAlpha" type="matrix" values="0 0 0 0 0 0 0 0 0 0 0 0 0 0 0 0 0 0 127 0" result="hardAlpha"/>
<feOffset dy="2"/>
<feGaussianBlur stdDeviation="2.5"/>
<feComposite in2="hardAlpha" operator="arithmetic" k2="-1" k3="1"/>
<feColorMatrix type="matrix" values="0 0 0 0 0 0 0 0 0 0 0 0 0 0 0 0 0 0 0.25 0"/>
<feBlend mode="normal" in2="shape" result="effect1_innerShadow_176_2435"/>
</filter>
<linearGradient id="paint0_linear_176_2435" x1="58" y1="16" x2="58" y2="33" gradientUnits="userSpaceOnUse">
<stop stop-color="#EBC601"/>
<stop offset="1" stop-color="#CAAA00"/>
</linearGradient>
<linearGradient id="paint1_linear_176_2435" x1="136" y1="4.49997" x2="140.979" y2="5.39798" gradientUnits="userSpaceOnUse">
<stop stop-color="#40E0D0"/>
<stop offset="1" stop-color="#58C5C0"/>
</linearGradient>
<linearGradient id="paint2_linear_176_2435" x1="223.25" y1="14.5" x2="223.25" y2="33" gradientUnits="userSpaceOnUse">
<stop stop-color="#9946AE"/>
<stop offset="1" stop-color="#602C6D"/>
</linearGradient>
</defs>
</svg>
