<svg width="96" height="116" viewBox="0 0 96 116" fill="none" xmlns="http://www.w3.org/2000/svg">
<g filter="url(#filter0_i_170_2437)">
<path d="M51.1354 115.469C45.3009 115.469 39.4143 114.896 33.4756 113.75C27.6412 112.5 22.2234 110.728 17.2225 108.436C12.3257 106.04 8.36655 103.175 5.34513 99.8408C2.3237 96.4026 0.812988 92.4435 0.812988 87.9634C0.812988 82.2332 2.63626 77.6489 6.28281 74.2107C9.92936 70.7726 14.201 69.1577 19.0978 69.366C22.9527 69.4702 26.8077 70.3037 30.6626 71.8665C34.5175 73.3252 38.4245 74.7838 42.3836 76.2424C46.4469 77.701 50.5102 78.4303 54.5735 78.4303C58.6368 78.4303 61.4499 77.9094 63.0127 76.8675C64.5755 75.8256 65.3569 74.4191 65.3569 72.6479C65.3569 70.5642 64.2629 68.8451 62.075 67.4907C59.8871 66.1362 57.1261 65.0944 53.7921 64.3651L46.1344 62.4897C38.2162 60.6143 31.1314 58.5306 24.8802 56.2385C18.629 53.8422 13.6801 50.7166 10.0335 46.8616C6.49119 42.9025 4.72 37.6411 4.72 31.0773C4.72 23.8884 6.69956 18.0539 10.6587 13.5738C14.6178 8.98962 19.9834 5.65563 26.7556 3.57188C33.5277 1.48814 41.0813 0.446274 49.4163 0.446274C57.9596 0.446274 65.4611 1.33187 71.9207 3.10305C78.3803 4.87422 83.3813 7.42681 86.9236 10.7608C90.5702 14.0948 92.3935 18.1581 92.3935 22.9507C92.3935 28.0559 90.9869 32.0671 88.1739 34.9843C85.465 37.7974 81.8185 39.2039 77.2342 39.2039C74.2128 39.2039 71.0351 38.6829 67.7011 37.6411C64.4713 36.5992 61.0331 35.6094 57.3866 34.6717C53.8442 33.6299 50.0414 33.1089 45.9781 33.1089C42.3316 33.1089 39.5706 33.682 37.6952 34.828C35.8199 35.8699 34.8822 37.2764 34.8822 39.0476C34.8822 41.2355 36.1324 42.8504 38.6329 43.8923C41.1334 44.9342 45.2488 46.1844 50.9791 47.643L59.7308 49.6747C66.9197 51.4459 73.223 53.5817 78.6408 56.0822C84.0585 58.5827 88.2781 61.8646 91.2995 65.9279C94.3209 69.9912 95.8316 75.3047 95.8316 81.8685C95.8316 89.7867 93.9563 96.2463 90.2055 101.247C86.4548 106.144 81.2454 109.739 74.5775 112.031C67.9095 114.323 60.0955 115.469 51.1354 115.469Z" fill="url(#paint0_linear_170_2437)"/>
</g>
<defs>
<filter id="filter0_i_170_2437" x="-1.83434" y="0.446274" width="97.6659" height="119.655" filterUnits="userSpaceOnUse" color-interpolation-filters="sRGB">
<feFlood flood-opacity="0" result="BackgroundImageFix"/>
<feBlend mode="normal" in="SourceGraphic" in2="BackgroundImageFix" result="shape"/>
<feColorMatrix in="SourceAlpha" type="matrix" values="0 0 0 0 0 0 0 0 0 0 0 0 0 0 0 0 0 0 127 0" result="hardAlpha"/>
<feOffset dx="-2.64733" dy="4.63283"/>
<feGaussianBlur stdDeviation="3.30917"/>
<feComposite in2="hardAlpha" operator="arithmetic" k2="-1" k3="1"/>
<feColorMatrix type="matrix" values="0 0 0 0 0 0 0 0 0 0 0 0 0 0 0 0 0 0 0.25 0"/>
<feBlend mode="normal" in2="shape" result="effect1_innerShadow_170_2437"/>
</filter>
<linearGradient id="paint0_linear_170_2437" x1="20.637" y1="58.9323" x2="20.637" y2="92.0744" gradientUnits="userSpaceOnUse">
<stop stop-color="#EBC601"/>
<stop offset="1" stop-color="#CAAA00"/>
</linearGradient>
</defs>
</svg>
