<svg width="47" height="47" viewBox="0 0 47 47" fill="none" xmlns="http://www.w3.org/2000/svg">
<path d="M42.8302 15.134C42.4326 14.6206 41.9214 14.2065 41.3366 13.9241C40.7519 13.6417 40.1096 13.4987 39.4603 13.5065H15.3567L13.272 9.72329C12.9356 9.13187 12.447 8.64124 11.8569 8.30233C11.2668 7.96342 10.5968 7.78859 9.91632 7.79599H5.04707C4.66836 7.79599 4.30516 7.9464 4.03737 8.21413C3.76958 8.48187 3.61914 8.84499 3.61914 9.22362C3.61914 9.60225 3.76958 9.96538 4.03737 10.2331C4.30516 10.5008 4.66836 10.6513 5.04707 10.6513H9.91632C10.0853 10.644 10.2533 10.6811 10.4035 10.7587C10.5538 10.8363 10.6812 10.9518 10.7731 11.0938L13.1292 15.3767L14.3572 28.6823C14.5218 30.0599 15.2027 31.3239 16.2627 32.2194C17.3227 33.1149 18.6828 33.5753 20.0689 33.5077H34.8766C36.101 33.5386 37.3018 33.1672 38.2949 32.4503C39.2879 31.7334 40.0183 30.7106 40.3741 29.5388L43.4727 18.3748C43.6254 17.8219 43.6468 17.241 43.5353 16.6783C43.4237 16.1157 43.1823 15.5869 42.8302 15.134ZM40.7454 17.5896L37.6468 28.7679C37.4538 29.3401 37.0781 29.833 36.5777 30.1709C36.0772 30.5087 35.4795 30.6729 34.8766 30.6381H20.0118C19.3443 30.687 18.6824 30.4862 18.1547 30.0747C17.627 29.6631 17.271 29.0702 17.1559 28.411L16.085 16.3618H39.4603C39.6689 16.3597 39.8755 16.4034 40.0654 16.4897C40.2554 16.576 40.4241 16.7029 40.5598 16.8615C40.645 16.9602 40.7061 17.0773 40.7383 17.2037C40.7705 17.33 40.7729 17.4621 40.7454 17.5896Z" fill="#40E0D0"/>
<path d="M20.7538 40.6316C22.3311 40.6316 23.6097 39.3532 23.6097 37.7763C23.6097 36.1994 22.3311 34.921 20.7538 34.921C19.1766 34.921 17.8979 36.1994 17.8979 37.7763C17.8979 39.3532 19.1766 40.6316 20.7538 40.6316Z" fill="#40E0D0"/>
<path d="M35.0334 40.6316C36.6106 40.6316 37.8892 39.3532 37.8892 37.7763C37.8892 36.1994 36.6106 34.921 35.0334 34.921C33.4561 34.921 32.1775 36.1994 32.1775 37.7763C32.1775 39.3532 33.4561 40.6316 35.0334 40.6316Z" fill="#40E0D0"/>
</svg>
