<svg width="47" height="47" viewBox="0 0 47 47" fill="none" xmlns="http://www.w3.org/2000/svg">
<path d="M42.8305 15.134C42.4329 14.6206 41.9217 14.2065 41.3369 13.9241C40.7522 13.6417 40.1099 13.4987 39.4606 13.5065H15.3571L13.2723 9.72329C12.9359 9.13187 12.4473 8.64124 11.8572 8.30233C11.2671 7.96342 10.5971 7.78859 9.91663 7.79599H5.04738C4.66867 7.79599 4.30547 7.9464 4.03768 8.21413C3.76989 8.48187 3.61945 8.84499 3.61945 9.22362C3.61945 9.60225 3.76989 9.96538 4.03768 10.2331C4.30547 10.5008 4.66867 10.6513 5.04738 10.6513H9.91663C10.0856 10.644 10.2536 10.6811 10.4038 10.7587C10.5541 10.8363 10.6815 10.9518 10.7734 11.0938L13.1295 15.3767L14.3575 28.6823C14.5221 30.0599 15.203 31.3239 16.263 32.2194C17.323 33.1149 18.6831 33.5753 20.0692 33.5077H34.8769C36.1013 33.5386 37.3022 33.1672 38.2952 32.4503C39.2882 31.7334 40.0186 30.7106 40.3744 29.5388L43.473 18.3748C43.6257 17.8219 43.6471 17.241 43.5356 16.6783C43.424 16.1157 43.1826 15.5869 42.8305 15.134ZM40.7457 17.5896L37.6471 28.7679C37.4541 29.3401 37.0785 29.833 36.578 30.1709C36.0775 30.5087 35.4798 30.6729 34.8769 30.6381H20.0121C19.3446 30.687 18.6827 30.4862 18.155 30.0747C17.6273 29.6631 17.2713 29.0702 17.1562 28.411L16.0853 16.3618H39.4606C39.6692 16.3597 39.8758 16.4034 40.0658 16.4897C40.2557 16.576 40.4244 16.7029 40.5601 16.8615C40.6453 16.9602 40.7064 17.0773 40.7386 17.2037C40.7708 17.33 40.7732 17.4621 40.7457 17.5896Z" fill="black"/>
<path d="M20.7541 40.6316C22.3314 40.6316 23.61 39.3532 23.61 37.7763C23.61 36.1994 22.3314 34.921 20.7541 34.921C19.1769 34.921 17.8983 36.1994 17.8983 37.7763C17.8983 39.3532 19.1769 40.6316 20.7541 40.6316Z" fill="black"/>
<path d="M35.0337 40.6316C36.6109 40.6316 37.8895 39.3532 37.8895 37.7763C37.8895 36.1994 36.6109 34.921 35.0337 34.921C33.4564 34.921 32.1778 36.1994 32.1778 37.7763C32.1778 39.3532 33.4564 40.6316 35.0337 40.6316Z" fill="black"/>
</svg>
