<svg width="37" height="39" viewBox="0 0 37 39" fill="none" xmlns="http://www.w3.org/2000/svg">
<path d="M32.9077 12.0921L23.0721 3.58945C21.8802 2.56398 20.3599 2.00004 18.7875 2.00004C17.2151 2.00004 15.6949 2.56398 14.5029 3.58945L4.66734 12.0921C3.95324 12.7105 3.38045 13.4752 2.98783 14.3343C2.5952 15.1935 2.39189 16.1271 2.39172 17.0717V32.0584C2.39172 32.7082 2.51986 33.3515 2.7688 33.9517C3.01773 34.5518 3.38257 35.0969 3.84245 35.5559C4.30233 36.0149 4.84822 36.3787 5.44886 36.6265C6.0495 36.8743 6.69311 37.0012 7.34285 37H13.9411V26.1646C13.9411 24.8717 14.4548 23.6318 15.369 22.7176C16.2832 21.8033 17.5232 21.2897 18.8161 21.2897C20.109 21.2897 21.349 21.8033 22.2632 22.7176C23.1774 23.6318 23.691 24.8717 23.691 26.1646V37H30.8701C32.0267 37 33.1359 36.5405 33.9537 35.7227C34.7715 34.9049 35.2309 33.7958 35.2309 32.6392V17.0717C35.2249 16.1234 35.0142 15.1875 34.6132 14.3281C34.2123 13.4687 33.6305 12.706 32.9077 12.0921V12.0921Z" stroke="black" stroke-width="3" stroke-linecap="round" stroke-linejoin="round"/>
</svg>
