<svg width="33" height="39" viewBox="0 0 33 39" fill="none" xmlns="http://www.w3.org/2000/svg">
<path fill-rule="evenodd" clip-rule="evenodd" d="M20.3514 2.64427C19.4935 1.3527 18.0161 0.5 16.3375 0.5C14.6588 0.5 13.1814 1.35272 12.3235 2.64431C6.32384 4.36413 1.93752 9.84183 1.93752 16.3333V22.1463C0.936885 23.37 0.337524 24.9282 0.337524 26.625C0.337524 30.56 3.56108 33.75 7.53753 33.75L11.5375 33.75C11.5375 35.0098 12.0432 36.218 12.9434 37.1088C13.8436 37.9996 15.0645 38.5 16.3375 38.5C17.6106 38.5 18.8315 37.9996 19.7316 37.1088C20.6318 36.218 21.1375 35.0098 21.1375 33.75L25.1375 33.75C29.114 33.75 32.3375 30.56 32.3375 26.625C32.3375 24.9282 31.7382 23.37 30.7375 22.1463V16.3333C30.7375 9.84177 26.3511 4.36403 20.3514 2.64427ZM5.13753 22.1463C5.13753 22.8714 4.88604 23.5746 4.4251 24.1383C3.8686 24.8188 3.53752 25.6794 3.53752 26.625C3.53752 28.8111 5.32839 30.5833 7.53753 30.5833H25.1375C27.3467 30.5833 29.1375 28.8111 29.1375 26.625C29.1375 25.6794 28.8065 24.8188 28.2499 24.1383C27.789 23.5746 27.5375 22.8714 27.5375 22.1463V16.3333C27.5375 10.2122 22.5231 5.25 16.3375 5.25C10.1519 5.25 5.13753 10.2122 5.13753 16.3333V22.1463ZM15.2062 34.8696C14.9061 34.5727 14.7375 34.1699 14.7375 33.75H17.9375C17.9375 34.1699 17.769 34.5727 17.4689 34.8696C17.1688 35.1665 16.7619 35.3333 16.3375 35.3333C15.9132 35.3333 15.5062 35.1665 15.2062 34.8696Z" fill="black"/>
</svg>
