<svg width="32" height="39" viewBox="0 0 32 39" fill="none" xmlns="http://www.w3.org/2000/svg">
<path fill-rule="evenodd" clip-rule="evenodd" d="M20.0041 2.64427C19.1462 1.3527 17.6688 0.5 15.9902 0.5C14.3115 0.5 12.8341 1.35272 11.9762 2.64431C5.97655 4.36413 1.59023 9.84183 1.59023 16.3333V22.1463C0.589594 23.37 -0.00976562 24.9282 -0.00976562 26.625C-0.00976562 30.56 3.21379 33.75 7.19024 33.75L11.1902 33.75C11.1902 35.0098 11.6959 36.218 12.5961 37.1088C13.4963 37.9996 14.7172 38.5 15.9902 38.5C17.2633 38.5 18.4842 37.9996 19.3843 37.1088C20.2845 36.218 20.7902 35.0098 20.7902 33.75L24.7902 33.75C28.7667 33.75 31.9902 30.56 31.9902 26.625C31.9902 24.9282 31.3909 23.37 30.3902 22.1463V16.3333C30.3902 9.84177 26.0038 4.36403 20.0041 2.64427ZM4.79024 22.1463C4.79024 22.8714 4.53875 23.5746 4.07781 24.1383C3.52131 24.8188 3.19023 25.6794 3.19023 26.625C3.19023 28.8111 4.9811 30.5833 7.19024 30.5833H24.7902C26.9994 30.5833 28.7902 28.8111 28.7902 26.625C28.7902 25.6794 28.4592 24.8188 27.9027 24.1383C27.4417 23.5746 27.1902 22.8714 27.1902 22.1463V16.3333C27.1902 10.2122 22.1758 5.25 15.9902 5.25C9.80465 5.25 4.79024 10.2122 4.79024 16.3333V22.1463ZM14.8589 34.8696C14.5588 34.5727 14.3902 34.1699 14.3902 33.75H17.5902C17.5902 34.1699 17.4217 34.5727 17.1216 34.8696C16.8215 35.1665 16.4146 35.3333 15.9902 35.3333C15.5659 35.3333 15.1589 35.1665 14.8589 34.8696Z" fill="#40E0D0"/>
</svg>
