<svg width="43" height="43" viewBox="0 0 43 43" fill="none" xmlns="http://www.w3.org/2000/svg">
<path d="M10.9071 30.425C12.3946 29.2875 14.0571 28.3906 15.8946 27.7344C17.7321 27.0781 19.6571 26.75 21.6696 26.75C23.6821 26.75 25.6071 27.0781 27.4446 27.7344C29.2821 28.3906 30.9446 29.2875 32.4321 30.425C33.4529 29.2292 34.2477 27.8729 34.8164 26.3563C35.3852 24.8396 35.6696 23.2208 35.6696 21.5C35.6696 17.6208 34.306 14.3177 31.5789 11.5906C28.8518 8.86354 25.5487 7.5 21.6696 7.5C17.7904 7.5 14.4873 8.86354 11.7602 11.5906C9.0331 14.3177 7.66956 17.6208 7.66956 21.5C7.66956 23.2208 7.95393 24.8396 8.52268 26.3563C9.09143 27.8729 9.88622 29.2292 10.9071 30.425ZM21.6696 23.25C19.9487 23.25 18.4977 22.6594 17.3164 21.4781C16.1352 20.2969 15.5446 18.8458 15.5446 17.125C15.5446 15.4042 16.1352 13.9531 17.3164 12.7719C18.4977 11.5906 19.9487 11 21.6696 11C23.3904 11 24.8414 11.5906 26.0227 12.7719C27.2039 13.9531 27.7946 15.4042 27.7946 17.125C27.7946 18.8458 27.2039 20.2969 26.0227 21.4781C24.8414 22.6594 23.3904 23.25 21.6696 23.25ZM21.6696 39C19.2487 39 16.9737 38.5406 14.8446 37.6219C12.7154 36.7031 10.8633 35.4563 9.28831 33.8813C7.71331 32.3063 6.46643 30.4542 5.54768 28.325C4.62893 26.1958 4.16956 23.9208 4.16956 21.5C4.16956 19.0792 4.62893 16.8042 5.54768 14.675C6.46643 12.5458 7.71331 10.6937 9.28831 9.11875C10.8633 7.54375 12.7154 6.29687 14.8446 5.37812C16.9737 4.45937 19.2487 4 21.6696 4C24.0904 4 26.3654 4.45937 28.4946 5.37812C30.6237 6.29687 32.4758 7.54375 34.0508 9.11875C35.6258 10.6937 36.8727 12.5458 37.7914 14.675C38.7102 16.8042 39.1696 19.0792 39.1696 21.5C39.1696 23.9208 38.7102 26.1958 37.7914 28.325C36.8727 30.4542 35.6258 32.3063 34.0508 33.8813C32.4758 35.4563 30.6237 36.7031 28.4946 37.6219C26.3654 38.5406 24.0904 39 21.6696 39Z" fill="#1D1B20"/>
</svg>
