<svg width="43" height="43" viewBox="0 0 43 43" fill="none" xmlns="http://www.w3.org/2000/svg">
<path d="M10.2541 30.425C11.7416 29.2875 13.4041 28.3906 15.2416 27.7344C17.0791 27.0781 19.0041 26.75 21.0166 26.75C23.0291 26.75 24.9541 27.0781 26.7916 27.7344C28.6291 28.3906 30.2916 29.2875 31.7791 30.425C32.7999 29.2292 33.5947 27.8729 34.1635 26.3563C34.7322 24.8396 35.0166 23.2208 35.0166 21.5C35.0166 17.6208 33.6531 14.3177 30.926 11.5906C28.1989 8.86354 24.8958 7.5 21.0166 7.5C17.1374 7.5 13.8343 8.86354 11.1072 11.5906C8.38014 14.3177 7.0166 17.6208 7.0166 21.5C7.0166 23.2208 7.30098 24.8396 7.86973 26.3563C8.43848 27.8729 9.23327 29.2292 10.2541 30.425ZM21.0166 23.25C19.2958 23.25 17.8447 22.6594 16.6635 21.4781C15.4822 20.2969 14.8916 18.8458 14.8916 17.125C14.8916 15.4042 15.4822 13.9531 16.6635 12.7719C17.8447 11.5906 19.2958 11 21.0166 11C22.7374 11 24.1885 11.5906 25.3697 12.7719C26.551 13.9531 27.1416 15.4042 27.1416 17.125C27.1416 18.8458 26.551 20.2969 25.3697 21.4781C24.1885 22.6594 22.7374 23.25 21.0166 23.25ZM21.0166 39C18.5958 39 16.3208 38.5406 14.1916 37.6219C12.0624 36.7031 10.2104 35.4563 8.63535 33.8813C7.06035 32.3063 5.81348 30.4542 4.89473 28.325C3.97598 26.1958 3.5166 23.9208 3.5166 21.5C3.5166 19.0792 3.97598 16.8042 4.89473 14.675C5.81348 12.5458 7.06035 10.6937 8.63535 9.11875C10.2104 7.54375 12.0624 6.29687 14.1916 5.37812C16.3208 4.45937 18.5958 4 21.0166 4C23.4374 4 25.7124 4.45937 27.8416 5.37812C29.9708 6.29687 31.8229 7.54375 33.3979 9.11875C34.9729 10.6937 36.2197 12.5458 37.1385 14.675C38.0572 16.8042 38.5166 19.0792 38.5166 21.5C38.5166 23.9208 38.0572 26.1958 37.1385 28.325C36.2197 30.4542 34.9729 32.3063 33.3979 33.8813C31.8229 35.4563 29.9708 36.7031 27.8416 37.6219C25.7124 38.5406 23.4374 39 21.0166 39Z" fill="#40E0D0"/>
</svg>
